<?xml version="1.0" encoding="UTF-8" standalone="no"?><svg xmlns="http://www.w3.org/2000/svg" xmlns:xlink="http://www.w3.org/1999/xlink" contentScriptType="application/ecmascript" contentStyleType="text/css" height="641px" preserveAspectRatio="none" style="width:996px;height:641px;background:#FFFFFF;" version="1.1" viewBox="0 0 996 641" width="996px" zoomAndPan="magnify"><defs><filter height="300%" id="f1spywg049uqx7" width="300%" x="-1" y="-1"><feGaussianBlur result="blurOut" stdDeviation="2.0"/><feColorMatrix in="blurOut" result="blurOut2" type="matrix" values="0 0 0 0 0 0 0 0 0 0 0 0 0 0 0 0 0 0 .4 0"/><feOffset dx="4.0" dy="4.0" in="blurOut2" result="blurOut3"/><feBlend in="SourceGraphic" in2="blurOut3" mode="normal"/></filter></defs><g><!--MD5=[8df5aae6f3a262482c1d6bb5dacc8acf]
class Landscape--><rect codeLine="2" fill="#FEFECE" filter="url(#f1spywg049uqx7)" height="48" id="Landscape" style="stroke:#A80036;stroke-width:1.5;" width="94" x="64.5" y="26.5"/><ellipse cx="79.5" cy="42.5" fill="#ADD1B2" rx="11" ry="11" style="stroke:#A80036;stroke-width:1.0;"/><path d="M82.4731,48.1431 Q81.8921,48.4419 81.2529,48.5913 Q80.6138,48.7407 79.9082,48.7407 Q77.4014,48.7407 76.0815,47.0889 Q74.7617,45.437 74.7617,42.3159 Q74.7617,39.1865 76.0815,37.5347 Q77.4014,35.8828 79.9082,35.8828 Q80.6138,35.8828 81.2612,36.0322 Q81.9087,36.1816 82.4731,36.4805 L82.4731,39.2031 Q81.8423,38.6221 81.2488,38.3523 Q80.6553,38.0825 80.0244,38.0825 Q78.6797,38.0825 77.9949,39.1492 Q77.3101,40.2158 77.3101,42.3159 Q77.3101,44.4077 77.9949,45.4744 Q78.6797,46.541 80.0244,46.541 Q80.6553,46.541 81.2488,46.2712 Q81.8423,46.0015 82.4731,45.4204 Z " fill="#000000"/><text fill="#000000" font-family="sans-serif" font-size="12" lengthAdjust="spacing" textLength="62" x="93.5" y="47.0352">Landscape</text><line style="stroke:#A80036;stroke-width:1.5;" x1="65.5" x2="157.5" y1="58.5" y2="58.5"/><line style="stroke:#A80036;stroke-width:1.5;" x1="65.5" x2="157.5" y1="66.5" y2="66.5"/><!--MD5=[a96594a83e2ecdc78cbf17c2ddf01934]
class Category--><rect codeLine="4" fill="#FEFECE" filter="url(#f1spywg049uqx7)" height="60.9551" id="Category" style="stroke:#A80036;stroke-width:1.5;" width="93" x="65" y="171"/><ellipse cx="84.5" cy="187" fill="#ADD1B2" rx="11" ry="11" style="stroke:#A80036;stroke-width:1.0;"/><path d="M87.4731,192.6431 Q86.8921,192.9419 86.2529,193.0913 Q85.6138,193.2407 84.9082,193.2407 Q82.4014,193.2407 81.0815,191.5889 Q79.7617,189.937 79.7617,186.8159 Q79.7617,183.6865 81.0815,182.0347 Q82.4014,180.3828 84.9082,180.3828 Q85.6138,180.3828 86.2612,180.5322 Q86.9087,180.6816 87.4731,180.9805 L87.4731,183.7031 Q86.8423,183.1221 86.2488,182.8523 Q85.6553,182.5825 85.0244,182.5825 Q83.6797,182.5825 82.9949,183.6492 Q82.3101,184.7158 82.3101,186.8159 Q82.3101,188.9077 82.9949,189.9744 Q83.6797,191.041 85.0244,191.041 Q85.6553,191.041 86.2488,190.7712 Q86.8423,190.5015 87.4731,189.9204 Z " fill="#000000"/><text fill="#000000" font-family="sans-serif" font-size="12" lengthAdjust="spacing" textLength="51" x="99.5" y="191.5352">Category</text><line style="stroke:#A80036;stroke-width:1.5;" x1="66" x2="157" y1="203" y2="203"/><ellipse cx="76" cy="214" rx="3" ry="3" style="stroke:#038048;stroke-width:1.0;fill:none;"/><text fill="#000000" font-family="sans-serif" font-size="11" lengthAdjust="spacing" textLength="67" x="85" y="217.6348">name: string</text><line style="stroke:#A80036;stroke-width:1.5;" x1="66" x2="157" y1="223.9551" y2="223.9551"/><!--MD5=[e3d83ec5fd90ea9f3f2bfe265cb53458]
class Status--><rect codeLine="8" fill="#FEFECE" filter="url(#f1spywg049uqx7)" height="86.8652" id="Status" style="stroke:#A80036;stroke-width:1.5;" width="83" x="353" y="7"/><ellipse cx="375.65" cy="23" fill="#EB937F" rx="11" ry="11" style="stroke:#A80036;stroke-width:1.0;"/><path d="M379.7643,29 L372.0445,29 L372.0445,16.6069 L379.7643,16.6069 L379.7643,18.7651 L374.4933,18.7651 L374.4933,21.438 L379.2662,21.438 L379.2662,23.5962 L374.4933,23.5962 L374.4933,26.8418 L379.7643,26.8418 Z " fill="#000000"/><text fill="#000000" font-family="sans-serif" font-size="12" lengthAdjust="spacing" textLength="34" x="391.35" y="27.5352">Status</text><line style="stroke:#A80036;stroke-width:1.5;" x1="354" x2="435" y1="39" y2="39"/><ellipse cx="364" cy="50" rx="3" ry="3" style="stroke:#038048;stroke-width:1.0;fill:none;"/><text fill="#000000" font-family="sans-serif" font-size="11" lengthAdjust="spacing" textLength="39" x="373" y="53.6348">ACTIVE</text><ellipse cx="364" cy="62.9551" rx="3" ry="3" style="stroke:#038048;stroke-width:1.0;fill:none;"/><text fill="#000000" font-family="sans-serif" font-size="11" lengthAdjust="spacing" textLength="50" x="373" y="66.5898">INACTIVE</text><ellipse cx="364" cy="75.9102" rx="3" ry="3" style="stroke:#038048;stroke-width:1.0;fill:none;"/><text fill="#000000" font-family="sans-serif" font-size="11" lengthAdjust="spacing" textLength="57" x="373" y="79.5449">UNKNOWN</text><line style="stroke:#A80036;stroke-width:1.5;" x1="354" x2="435" y1="85.8652" y2="85.8652"/><!--MD5=[d189332174d53557e6def82bbd003869]
class Link--><rect codeLine="14" fill="#FEFECE" filter="url(#f1spywg049uqx7)" height="73.9102" id="Link" style="stroke:#A80036;stroke-width:1.5;" width="93" x="471" y="13.5"/><ellipse cx="503.1" cy="29.5" fill="#ADD1B2" rx="11" ry="11" style="stroke:#A80036;stroke-width:1.0;"/><path d="M506.0731,35.1431 Q505.4921,35.4419 504.8529,35.5913 Q504.2138,35.7407 503.5082,35.7407 Q501.0014,35.7407 499.6815,34.0889 Q498.3617,32.437 498.3617,29.3159 Q498.3617,26.1865 499.6815,24.5347 Q501.0014,22.8828 503.5082,22.8828 Q504.2138,22.8828 504.8612,23.0322 Q505.5087,23.1816 506.0731,23.4805 L506.0731,26.2031 Q505.4423,25.6221 504.8488,25.3523 Q504.2553,25.0825 503.6244,25.0825 Q502.2797,25.0825 501.5949,26.1492 Q500.9101,27.2158 500.9101,29.3159 Q500.9101,31.4077 501.5949,32.4744 Q502.2797,33.541 503.6244,33.541 Q504.2553,33.541 504.8488,33.2712 Q505.4423,33.0015 506.0731,32.4204 Z " fill="#000000"/><text fill="#000000" font-family="sans-serif" font-size="12" lengthAdjust="spacing" textLength="23" x="520.9" y="34.0352">Link</text><line style="stroke:#A80036;stroke-width:1.5;" x1="472" x2="563" y1="45.5" y2="45.5"/><ellipse cx="482" cy="56.5" rx="3" ry="3" style="stroke:#038048;stroke-width:1.0;fill:none;"/><text fill="#000000" font-family="sans-serif" font-size="11" lengthAdjust="spacing" textLength="67" x="491" y="60.1348">name: string</text><ellipse cx="482" cy="69.4551" rx="3" ry="3" style="stroke:#038048;stroke-width:1.0;fill:none;"/><text fill="#000000" font-family="sans-serif" font-size="11" lengthAdjust="spacing" textLength="56" x="491" y="73.0898">url : string</text><line style="stroke:#A80036;stroke-width:1.5;" x1="472" x2="563" y1="79.4102" y2="79.4102"/><!--MD5=[62157b509973564ddc878c05b423c99e]
class Implementation--><rect codeLine="19" fill="#FEFECE" filter="url(#f1spywg049uqx7)" height="60.9551" id="Implementation" style="stroke:#A80036;stroke-width:1.5;" width="121" x="396" y="171"/><ellipse cx="411" cy="187" fill="#A9DCDF" rx="11" ry="11" style="stroke:#A80036;stroke-width:1.0;"/><path d="M411.1133,182.3481 L409.9595,187.4199 L412.2754,187.4199 Z M409.6191,180.1069 L412.6157,180.1069 L415.9609,192.5 L413.5122,192.5 L412.7485,189.437 L409.4697,189.437 L408.7227,192.5 L406.2739,192.5 Z " fill="#000000"/><text fill="#000000" font-family="sans-serif" font-size="12" font-style="italic" lengthAdjust="spacing" textLength="89" x="425" y="191.5352">Implementation</text><line style="stroke:#A80036;stroke-width:1.5;" x1="397" x2="516" y1="203" y2="203"/><ellipse cx="407" cy="214" rx="3" ry="3" style="stroke:#038048;stroke-width:1.0;fill:none;"/><text fill="#000000" font-family="sans-serif" font-size="11" lengthAdjust="spacing" textLength="67" x="416" y="217.6348">name: string</text><line style="stroke:#A80036;stroke-width:1.5;" x1="397" x2="516" y1="223.9551" y2="223.9551"/><!--MD5=[668d633d11bedc8952753581a2dda3db]
class Community--><rect codeLine="23" fill="#FEFECE" filter="url(#f1spywg049uqx7)" height="48" id="Community" style="stroke:#A80036;stroke-width:1.5;" width="96" x="287.5" y="306"/><ellipse cx="302.5" cy="322" fill="#A9DCDF" rx="11" ry="11" style="stroke:#A80036;stroke-width:1.0;"/><path d="M302.6133,317.3481 L301.4595,322.4199 L303.7754,322.4199 Z M301.1191,315.1069 L304.1157,315.1069 L307.4609,327.5 L305.0122,327.5 L304.2485,324.437 L300.9697,324.437 L300.2227,327.5 L297.7739,327.5 Z " fill="#000000"/><text fill="#000000" font-family="sans-serif" font-size="12" font-style="italic" lengthAdjust="spacing" textLength="64" x="316.5" y="326.5352">Community</text><line style="stroke:#A80036;stroke-width:1.5;" x1="288.5" x2="382.5" y1="338" y2="338"/><line style="stroke:#A80036;stroke-width:1.5;" x1="288.5" x2="382.5" y1="346" y2="346"/><!--MD5=[a2b4d36bd85f5efca05149052cb67308]
class **EUFundedProject**--><rect codeLine="26" fill="#FEFECE" filter="url(#f1spywg049uqx7)" height="48" id="**EUFundedProject**" style="stroke:#A80036;stroke-width:1.5;" width="136" x="221.5" y="457"/><ellipse cx="236.5" cy="473" fill="#ADD1B2" rx="11" ry="11" style="stroke:#A80036;stroke-width:1.0;"/><path d="M239.4731,478.6431 Q238.8921,478.9419 238.2529,479.0913 Q237.6138,479.2407 236.9082,479.2407 Q234.4014,479.2407 233.0815,477.5889 Q231.7617,475.937 231.7617,472.8159 Q231.7617,469.6865 233.0815,468.0347 Q234.4014,466.3828 236.9082,466.3828 Q237.6138,466.3828 238.2612,466.5322 Q238.9087,466.6816 239.4731,466.9805 L239.4731,469.7031 Q238.8423,469.1221 238.2488,468.8523 Q237.6553,468.5825 237.0244,468.5825 Q235.6797,468.5825 234.9949,469.6492 Q234.3101,470.7158 234.3101,472.8159 Q234.3101,474.9077 234.9949,475.9744 Q235.6797,477.041 237.0244,477.041 Q237.6553,477.041 238.2488,476.7712 Q238.8423,476.5015 239.4731,475.9204 Z " fill="#000000"/><text fill="#000000" font-family="sans-serif" font-size="12" font-weight="bold" lengthAdjust="spacing" textLength="104" x="250.5" y="477.5352">EUFundedProject</text><line style="stroke:#A80036;stroke-width:1.5;" x1="222.5" x2="356.5" y1="489" y2="489"/><line style="stroke:#A80036;stroke-width:1.5;" x1="222.5" x2="356.5" y1="497" y2="497"/><!--MD5=[d7b8166d2cd7f8f6f75663b9329b35c0]
class **OpenSourceCommunity**--><rect codeLine="29" fill="#FEFECE" filter="url(#f1spywg049uqx7)" height="48" id="**OpenSourceCommunity**" style="stroke:#A80036;stroke-width:1.5;" width="179" x="7" y="457"/><ellipse cx="22" cy="473" fill="#ADD1B2" rx="11" ry="11" style="stroke:#A80036;stroke-width:1.0;"/><path d="M24.9731,478.6431 Q24.3921,478.9419 23.7529,479.0913 Q23.1138,479.2407 22.4082,479.2407 Q19.9014,479.2407 18.5815,477.5889 Q17.2617,475.937 17.2617,472.8159 Q17.2617,469.6865 18.5815,468.0347 Q19.9014,466.3828 22.4082,466.3828 Q23.1138,466.3828 23.7612,466.5322 Q24.4087,466.6816 24.9731,466.9805 L24.9731,469.7031 Q24.3423,469.1221 23.7488,468.8523 Q23.1553,468.5825 22.5244,468.5825 Q21.1797,468.5825 20.4949,469.6492 Q19.8101,470.7158 19.8101,472.8159 Q19.8101,474.9077 20.4949,475.9744 Q21.1797,477.041 22.5244,477.041 Q23.1553,477.041 23.7488,476.7712 Q24.3423,476.5015 24.9731,475.9204 Z " fill="#000000"/><text fill="#000000" font-family="sans-serif" font-size="12" font-weight="bold" lengthAdjust="spacing" textLength="147" x="36" y="477.5352">OpenSourceCommunity</text><line style="stroke:#A80036;stroke-width:1.5;" x1="8" x2="185" y1="489" y2="489"/><line style="stroke:#A80036;stroke-width:1.5;" x1="8" x2="185" y1="497" y2="497"/><!--MD5=[b73e80794168e6e90d941ce162d7801e]
class ToscaImplementation--><rect codeLine="32" fill="#FEFECE" filter="url(#f1spywg049uqx7)" height="73.9102" id="ToscaImplementation" style="stroke:#A80036;stroke-width:1.5;" width="236" x="464.5" y="293"/><ellipse cx="516.75" cy="309" fill="#A9DCDF" rx="11" ry="11" style="stroke:#A80036;stroke-width:1.0;"/><path d="M516.8633,304.3481 L515.7095,309.4199 L518.0254,309.4199 Z M515.3691,302.1069 L518.3657,302.1069 L521.7109,314.5 L519.2622,314.5 L518.4985,311.437 L515.2197,311.437 L514.4727,314.5 L512.0239,314.5 Z " fill="#000000"/><text fill="#000000" font-family="sans-serif" font-size="12" font-style="italic" lengthAdjust="spacing" textLength="123" x="537.25" y="313.5352">ToscaImplementation</text><line style="stroke:#A80036;stroke-width:1.5;" x1="465.5" x2="699.5" y1="325" y2="325"/><ellipse cx="475.5" cy="336" rx="3" ry="3" style="stroke:#038048;stroke-width:1.0;fill:none;"/><text fill="#000000" font-family="sans-serif" font-size="11" lengthAdjust="spacing" textLength="210" x="484.5" y="339.6348">supported_tosca_profiles: list&lt;string&gt;</text><ellipse cx="475.5" cy="348.9551" rx="3" ry="3" style="stroke:#038048;stroke-width:1.0;fill:none;"/><text fill="#000000" font-family="sans-serif" font-size="11" lengthAdjust="spacing" textLength="184" x="484.5" y="352.5898">target_environments: list&lt;string&gt;</text><line style="stroke:#A80036;stroke-width:1.5;" x1="465.5" x2="699.5" y1="358.9102" y2="358.9102"/><!--MD5=[531b280ccf420cab9465d43c3c96bcc9]
class **OpenStandard**--><rect codeLine="37" fill="#FEFECE" filter="url(#f1spywg049uqx7)" height="48" id="**OpenStandard**" style="stroke:#A80036;stroke-width:1.5;" width="120" x="862.5" y="579"/><ellipse cx="877.5" cy="595" fill="#ADD1B2" rx="11" ry="11" style="stroke:#A80036;stroke-width:1.0;"/><path d="M880.4731,600.6431 Q879.8921,600.9419 879.2529,601.0913 Q878.6138,601.2407 877.9082,601.2407 Q875.4014,601.2407 874.0815,599.5889 Q872.7617,597.937 872.7617,594.8159 Q872.7617,591.6865 874.0815,590.0347 Q875.4014,588.3828 877.9082,588.3828 Q878.6138,588.3828 879.2612,588.5322 Q879.9087,588.6816 880.4731,588.9805 L880.4731,591.7031 Q879.8423,591.1221 879.2488,590.8523 Q878.6553,590.5825 878.0244,590.5825 Q876.6797,590.5825 875.9949,591.6492 Q875.3101,592.7158 875.3101,594.8159 Q875.3101,596.9077 875.9949,597.9744 Q876.6797,599.041 878.0244,599.041 Q878.6553,599.041 879.2488,598.7712 Q879.8423,598.5015 880.4731,597.9204 Z " fill="#000000"/><text fill="#000000" font-family="sans-serif" font-size="12" font-weight="bold" lengthAdjust="spacing" textLength="88" x="891.5" y="599.5352">OpenStandard</text><line style="stroke:#A80036;stroke-width:1.5;" x1="863.5" x2="981.5" y1="611" y2="611"/><line style="stroke:#A80036;stroke-width:1.5;" x1="863.5" x2="981.5" y1="619" y2="619"/><!--MD5=[5de95931d76f65510359a9a8eb0257d0]
class SoftwareImplementation--><rect codeLine="40" fill="#FEFECE" filter="url(#f1spywg049uqx7)" height="73.9102" id="SoftwareImplementation" style="stroke:#A80036;stroke-width:1.5;" width="233" x="466" y="444"/><ellipse cx="509.35" cy="460" fill="#A9DCDF" rx="11" ry="11" style="stroke:#A80036;stroke-width:1.0;"/><path d="M509.4633,455.3481 L508.3095,460.4199 L510.6254,460.4199 Z M507.9691,453.1069 L510.9657,453.1069 L514.3109,465.5 L511.8622,465.5 L511.0985,462.437 L507.8197,462.437 L507.0727,465.5 L504.6239,465.5 Z " fill="#000000"/><text fill="#000000" font-family="sans-serif" font-size="12" font-style="italic" lengthAdjust="spacing" textLength="138" x="529.65" y="464.5352">SoftwareImplementation</text><line style="stroke:#A80036;stroke-width:1.5;" x1="467" x2="698" y1="476" y2="476"/><ellipse cx="477" cy="487" rx="3" ry="3" style="stroke:#038048;stroke-width:1.0;fill:none;"/><text fill="#000000" font-family="sans-serif" font-size="11" lengthAdjust="spacing" textLength="146" x="486" y="490.6348">usage_modes: list&lt;string&gt;</text><ellipse cx="477" cy="499.9551" rx="3" ry="3" style="stroke:#038048;stroke-width:1.0;fill:none;"/><text fill="#000000" font-family="sans-serif" font-size="11" lengthAdjust="spacing" textLength="207" x="486" y="503.5898">programming_languages: list&lt;string&gt;</text><line style="stroke:#A80036;stroke-width:1.5;" x1="467" x2="698" y1="509.9102" y2="509.9102"/><!--MD5=[b088813d5e563f78823af1e13f9643b4]
class **ModelingTool**--><rect codeLine="45" fill="#FEFECE" filter="url(#f1spywg049uqx7)" height="48" id="**ModelingTool**" style="stroke:#A80036;stroke-width:1.5;" width="118" x="264.5" y="579"/><ellipse cx="279.5" cy="595" fill="#ADD1B2" rx="11" ry="11" style="stroke:#A80036;stroke-width:1.0;"/><path d="M282.4731,600.6431 Q281.8921,600.9419 281.2529,601.0913 Q280.6138,601.2407 279.9082,601.2407 Q277.4014,601.2407 276.0815,599.5889 Q274.7617,597.937 274.7617,594.8159 Q274.7617,591.6865 276.0815,590.0347 Q277.4014,588.3828 279.9082,588.3828 Q280.6138,588.3828 281.2612,588.5322 Q281.9087,588.6816 282.4731,588.9805 L282.4731,591.7031 Q281.8423,591.1221 281.2488,590.8523 Q280.6553,590.5825 280.0244,590.5825 Q278.6797,590.5825 277.9949,591.6492 Q277.3101,592.7158 277.3101,594.8159 Q277.3101,596.9077 277.9949,597.9744 Q278.6797,599.041 280.0244,599.041 Q280.6553,599.041 281.2488,598.7712 Q281.8423,598.5015 282.4731,597.9204 Z " fill="#000000"/><text fill="#000000" font-family="sans-serif" font-size="12" font-weight="bold" lengthAdjust="spacing" textLength="86" x="293.5" y="599.5352">ModelingTool</text><line style="stroke:#A80036;stroke-width:1.5;" x1="265.5" x2="381.5" y1="611" y2="611"/><line style="stroke:#A80036;stroke-width:1.5;" x1="265.5" x2="381.5" y1="619" y2="619"/><!--MD5=[4c74589ac0f8e501e79de34bc72af2ad]
class **MarketPlace**--><rect codeLine="48" fill="#FEFECE" filter="url(#f1spywg049uqx7)" height="48" id="**MarketPlace**" style="stroke:#A80036;stroke-width:1.5;" width="106" x="417.5" y="579"/><ellipse cx="432.5" cy="595" fill="#ADD1B2" rx="11" ry="11" style="stroke:#A80036;stroke-width:1.0;"/><path d="M435.4731,600.6431 Q434.8921,600.9419 434.2529,601.0913 Q433.6138,601.2407 432.9082,601.2407 Q430.4014,601.2407 429.0815,599.5889 Q427.7617,597.937 427.7617,594.8159 Q427.7617,591.6865 429.0815,590.0347 Q430.4014,588.3828 432.9082,588.3828 Q433.6138,588.3828 434.2612,588.5322 Q434.9087,588.6816 435.4731,588.9805 L435.4731,591.7031 Q434.8423,591.1221 434.2488,590.8523 Q433.6553,590.5825 433.0244,590.5825 Q431.6797,590.5825 430.9949,591.6492 Q430.3101,592.7158 430.3101,594.8159 Q430.3101,596.9077 430.9949,597.9744 Q431.6797,599.041 433.0244,599.041 Q433.6553,599.041 434.2488,598.7712 Q434.8423,598.5015 435.4731,597.9204 Z " fill="#000000"/><text fill="#000000" font-family="sans-serif" font-size="12" font-weight="bold" lengthAdjust="spacing" textLength="74" x="446.5" y="599.5352">MarketPlace</text><line style="stroke:#A80036;stroke-width:1.5;" x1="418.5" x2="522.5" y1="611" y2="611"/><line style="stroke:#A80036;stroke-width:1.5;" x1="418.5" x2="522.5" y1="619" y2="619"/><!--MD5=[cd01a1854c7e81544da43c1872e6f2c6]
class **Orchestrator**--><rect codeLine="51" fill="#FEFECE" filter="url(#f1spywg049uqx7)" height="48" id="**Orchestrator**" style="stroke:#A80036;stroke-width:1.5;" width="110" x="558.5" y="579"/><ellipse cx="573.5" cy="595" fill="#ADD1B2" rx="11" ry="11" style="stroke:#A80036;stroke-width:1.0;"/><path d="M576.4731,600.6431 Q575.8921,600.9419 575.2529,601.0913 Q574.6138,601.2407 573.9082,601.2407 Q571.4014,601.2407 570.0815,599.5889 Q568.7617,597.937 568.7617,594.8159 Q568.7617,591.6865 570.0815,590.0347 Q571.4014,588.3828 573.9082,588.3828 Q574.6138,588.3828 575.2612,588.5322 Q575.9087,588.6816 576.4731,588.9805 L576.4731,591.7031 Q575.8423,591.1221 575.2488,590.8523 Q574.6553,590.5825 574.0244,590.5825 Q572.6797,590.5825 571.9949,591.6492 Q571.3101,592.7158 571.3101,594.8159 Q571.3101,596.9077 571.9949,597.9744 Q572.6797,599.041 574.0244,599.041 Q574.6553,599.041 575.2488,598.7712 Q575.8423,598.5015 576.4731,597.9204 Z " fill="#000000"/><text fill="#000000" font-family="sans-serif" font-size="12" font-weight="bold" lengthAdjust="spacing" textLength="78" x="587.5" y="599.5352">Orchestrator</text><line style="stroke:#A80036;stroke-width:1.5;" x1="559.5" x2="667.5" y1="611" y2="611"/><line style="stroke:#A80036;stroke-width:1.5;" x1="559.5" x2="667.5" y1="619" y2="619"/><!--MD5=[078f76c2f41ce9c09ebfffa16dcfd95b]
class **DeveloperTool**--><rect codeLine="54" fill="#FEFECE" filter="url(#f1spywg049uqx7)" height="48" id="**DeveloperTool**" style="stroke:#A80036;stroke-width:1.5;" width="123" x="704" y="579"/><ellipse cx="719" cy="595" fill="#ADD1B2" rx="11" ry="11" style="stroke:#A80036;stroke-width:1.0;"/><path d="M721.9731,600.6431 Q721.3921,600.9419 720.7529,601.0913 Q720.1138,601.2407 719.4082,601.2407 Q716.9014,601.2407 715.5815,599.5889 Q714.2617,597.937 714.2617,594.8159 Q714.2617,591.6865 715.5815,590.0347 Q716.9014,588.3828 719.4082,588.3828 Q720.1138,588.3828 720.7612,588.5322 Q721.4087,588.6816 721.9731,588.9805 L721.9731,591.7031 Q721.3423,591.1221 720.7488,590.8523 Q720.1553,590.5825 719.5244,590.5825 Q718.1797,590.5825 717.4949,591.6492 Q716.8101,592.7158 716.8101,594.8159 Q716.8101,596.9077 717.4949,597.9744 Q718.1797,599.041 719.5244,599.041 Q720.1553,599.041 720.7488,598.7712 Q721.3423,598.5015 721.9731,597.9204 Z " fill="#000000"/><text fill="#000000" font-family="sans-serif" font-size="12" font-weight="bold" lengthAdjust="spacing" textLength="91" x="733" y="599.5352">DeveloperTool</text><line style="stroke:#A80036;stroke-width:1.5;" x1="705" x2="826" y1="611" y2="611"/><line style="stroke:#A80036;stroke-width:1.5;" x1="705" x2="826" y1="619" y2="619"/><!--MD5=[0631ec619a05f4e28d7ff39bbf79e13b]
reverse link Implementation to Community--><path d="M413.5331,247.1302 C394.8602,266.9604 373.7484,289.3809 358.197,305.8961 " fill="none" id="Implementation-backto-Community" style="stroke:#A80036;stroke-width:1.0;"/><polygon fill="none" points="408.7104,242.0409,427.5175,232.279,418.9029,251.6385,408.7104,242.0409" style="stroke:#A80036;stroke-width:1.0;"/><!--MD5=[1cb40176bdeb2658094b8a65ba879303]
reverse link Community to **EUFundedProject**--><path d="M322.1691,373.7602 C313.9324,400.7981 303.6731,434.4754 296.8724,456.7994 " fill="none" id="Community-backto-**EUFundedProject**" style="stroke:#A80036;stroke-width:1.0;"/><polygon fill="none" points="315.5848,371.3528,328.1093,354.2608,328.9771,375.4326,315.5848,371.3528" style="stroke:#A80036;stroke-width:1.0;"/><!--MD5=[feb01a3f944eb66deeb28ca8a2f80a10]
reverse link Community to **OpenSourceCommunity**--><path d="M280.2644,364.8978 C235.569,393.1363 173.8008,432.1614 134.4987,456.9925 " fill="none" id="Community-backto-**OpenSourceCommunity**" style="stroke:#A80036;stroke-width:1.0;"/><polygon fill="none" points="276.7185,358.8581,297.3655,354.0934,284.1963,370.6938,276.7185,358.8581" style="stroke:#A80036;stroke-width:1.0;"/><!--MD5=[d4d6ec7611b00ba2bb478bdf43c5506d]
reverse link Implementation to ToscaImplementation--><path d="M500.7741,246.6525 C515.5037,261.6744 531.7356,278.2284 545.8255,292.5978 " fill="none" id="Implementation-backto-ToscaImplementation" style="stroke:#A80036;stroke-width:1.0;"/><polygon fill="none" points="495.6846,251.4602,486.6801,232.279,505.6808,241.6584,495.6846,251.4602" style="stroke:#A80036;stroke-width:1.0;"/><!--MD5=[e4962b214dd56a45f0d90abe4688dcab]
reverse link ToscaImplementation to **OpenStandard**--><path d="M720.5381,351.6712 C779.4934,367.7356 844.3033,395.6303 886.5,444 C919.8045,482.1767 924.1354,544.7019 923.7277,578.8608 " fill="none" id="ToscaImplementation-backto-**OpenStandard**" style="stroke:#A80036;stroke-width:1.0;"/><polygon fill="none" points="718.4735,358.3692,700.8101,346.6643,721.9175,344.7994,718.4735,358.3692" style="stroke:#A80036;stroke-width:1.0;"/><!--MD5=[c66e18cb8a1ac478f21d737d822b197e]
reverse link ToscaImplementation to SoftwareImplementation--><path d="M582.5,387.359 C582.5,406.287 582.5,426.832 582.5,443.8421 " fill="none" id="ToscaImplementation-backto-SoftwareImplementation" style="stroke:#A80036;stroke-width:1.0;"/><polygon fill="none" points="575.5001,387.3259,582.5,367.3259,589.5001,387.3258,575.5001,387.3259" style="stroke:#A80036;stroke-width:1.0;"/><!--MD5=[bf99f1a4e4a67cfd467713e12ce7c7de]
reverse link SoftwareImplementation to **ModelingTool**--><path d="M485.5911,526.6482 C447.8572,544.4225 406.1749,564.0566 374.5288,578.9633 " fill="none" id="SoftwareImplementation-backto-**ModelingTool**" style="stroke:#A80036;stroke-width:1.0;"/><polygon fill="none" points="482.6604,520.291,503.7366,518.1009,488.6263,532.9563,482.6604,520.291" style="stroke:#A80036;stroke-width:1.0;"/><!--MD5=[48b1a51b593e97ff0c8d6e008d830988]
reverse link SoftwareImplementation to **MarketPlace**--><path d="M534.7055,533.0619 C520.1602,548.9059 504.86,565.5721 492.8453,578.6595 " fill="none" id="SoftwareImplementation-backto-**MarketPlace**" style="stroke:#A80036;stroke-width:1.0;"/><polygon fill="none" points="529.6057,528.2661,548.2877,518.2669,539.9189,537.7339,529.6057,528.2661" style="stroke:#A80036;stroke-width:1.0;"/><!--MD5=[ce5ea10a9ed05477d7df57ffdac6b799]
reverse link SoftwareImplementation to **Orchestrator**--><path d="M596.9794,537.9835 C600.6183,552.3042 604.3325,566.9214 607.3151,578.6595 " fill="none" id="SoftwareImplementation-backto-**Orchestrator**" style="stroke:#A80036;stroke-width:1.0;"/><polygon fill="none" points="590.1106,539.3749,591.9695,518.2669,603.6794,535.927,590.1106,539.3749" style="stroke:#A80036;stroke-width:1.0;"/><!--MD5=[8df844d810bfd97a09843898ba5183b8]
reverse link SoftwareImplementation to **DeveloperTool**--><path d="M655.1664,529.4443 C680.6158,546.4105 708.0969,564.7312 729.2665,578.8443 " fill="none" id="SoftwareImplementation-backto-**DeveloperTool**" style="stroke:#A80036;stroke-width:1.0;"/><polygon fill="none" points="651.1585,535.1853,638.4004,518.2669,658.9243,523.5366,651.1585,535.1853" style="stroke:#A80036;stroke-width:1.0;"/><!--MD5=[e4da2baa4fc49e5b168dbfa8ba7d6775]
reverse link Landscape to Category--><path codeLine="57" d="M111.5,88.0154 C111.5,113.5187 111.5,146.8414 111.5,170.7709 " fill="none" id="Landscape-backto-Category" style="stroke:#A80036;stroke-width:1.0;"/><polygon fill="#A80036" points="111.5,74.7608,107.5,80.7608,111.5,86.7608,115.5,80.7608,111.5,74.7608" style="stroke:#A80036;stroke-width:1.0;"/><text fill="#000000" font-family="sans-serif" font-size="13" lengthAdjust="spacing" textLength="65" x="112.5" y="137.5684">categories</text><text fill="#000000" font-family="sans-serif" font-size="13" lengthAdjust="spacing" textLength="6" x="104.8813" y="160.4912">*</text><!--MD5=[1bbb0fe1bbd6d6c018b138c568bec21c]
reverse link Category to Implementation--><path codeLine="58" d="M171.2763,201.5 C234.1996,201.5 332.7206,201.5 395.9382,201.5 " fill="none" id="Category-backto-Implementation" style="stroke:#A80036;stroke-width:1.0;"/><polygon fill="#A80036" points="158.0282,201.5,164.0282,205.5,170.0282,201.5,164.0282,197.5,158.0282,201.5" style="stroke:#A80036;stroke-width:1.0;"/><text fill="#000000" font-family="sans-serif" font-size="13" lengthAdjust="spacing" textLength="106" x="224" y="195.0684">implementations</text><text fill="#000000" font-family="sans-serif" font-size="13" lengthAdjust="spacing" textLength="6" x="382.1916" y="198.176">*</text><!--MD5=[a5725b0440277e7b298212d4ab098951]
link Category to Category--><path codeLine="59" d="M158.4007,190.3187 C177.2114,189.687 193,193.4141 193,201.5 C193,207.5645 184.1189,211.1771 171.7426,212.3378 " fill="none" id="Category-to-Category" style="stroke:#A80036;stroke-width:1.0;"/><polygon fill="#A80036" points="158.4007,212.6813,164.5017,216.5255,170.3967,212.3723,164.2957,208.5281,158.4007,212.6813" style="stroke:#A80036;stroke-width:1.0;"/><text fill="#000000" font-family="sans-serif" font-size="13" lengthAdjust="spacing" textLength="65" x="199" y="206.5684">categories</text><text fill="#000000" font-family="sans-serif" font-size="13" lengthAdjust="spacing" textLength="6" x="166.0417" y="185.0537">*</text><!--MD5=[73966f7b43aaa31981b6de17f481db63]
link Status to Implementation--><path codeLine="60" d="M412.433,94.1755 C420.7455,114.4205 430.5923,138.4023 438.8674,158.556 " fill="none" id="Status-to-Implementation" style="stroke:#A80036;stroke-width:1.0;"/><polygon fill="#A80036" points="443.9172,170.8548,445.3385,163.7851,439.3593,159.7541,437.938,166.8238,443.9172,170.8548" style="stroke:#A80036;stroke-width:1.0;"/><text fill="#000000" font-family="sans-serif" font-size="13" lengthAdjust="spacing" textLength="39" x="432.5" y="137.5684">status</text><!--MD5=[8c23ad07c8d7e3ec68ddd6651209b50e]
link Link to Implementation--><path codeLine="61" d="M502.4213,87.8259 C493.7692,109.2433 482.8703,136.2226 473.8618,158.5223 " fill="none" id="Link-to-Implementation" style="stroke:#A80036;stroke-width:1.0;"/><polygon fill="#A80036" points="468.9431,170.6982,474.8993,166.6333,473.4379,159.5718,467.4817,163.6367,468.9431,170.6982" style="stroke:#A80036;stroke-width:1.0;"/><text fill="#000000" font-family="sans-serif" font-size="13" lengthAdjust="spacing" textLength="31" x="488.5" y="137.5684">links</text><text fill="#000000" font-family="sans-serif" font-size="13" lengthAdjust="spacing" textLength="6" x="493.427" y="107.8517">*</text><!--MD5=[5050d02a8c95f948f61fc30530109f80]
reverse link **EUFundedProject** to SoftwareImplementation--><path codeLine="62" d="M370.9798,481 C400.3276,481 434.0426,481 465.8057,481 " fill="none" id="**EUFundedProject**-backto-SoftwareImplementation" style="stroke:#A80036;stroke-width:1.0;"/><polygon fill="#FFFFFF" points="357.8257,481,363.8257,485,369.8257,481,363.8257,477,357.8257,481" style="stroke:#A80036;stroke-width:1.0;"/><text fill="#000000" font-family="sans-serif" font-size="13" lengthAdjust="spacing" textLength="72" x="375.75" y="474.5684">contributes</text><text fill="#000000" font-family="sans-serif" font-size="13" lengthAdjust="spacing" textLength="6" x="452.1378" y="478.1007">*</text><!--MD5=[e09edf5f534c028d7a09dcd1a8c0dad1]
reverse link Community to SoftwareImplementation--><path codeLine="63" d="M386.0591,360.9086 C425.3077,384.9027 479.8741,418.2611 521.5392,443.7324 " fill="none" id="Community-backto-SoftwareImplementation" style="stroke:#A80036;stroke-width:1.0;"/><polygon fill="#FFFFFF" points="374.911,354.0934,377.9438,360.6357,385.1493,360.3525,382.1165,353.8102,374.911,354.0934" style="stroke:#A80036;stroke-width:1.0;"/><text fill="#000000" font-family="sans-serif" font-size="13" lengthAdjust="spacing" textLength="35" x="467.5" y="410.5684">hosts</text><text fill="#000000" font-family="sans-serif" font-size="13" lengthAdjust="spacing" textLength="6" x="504.1462" y="433.3622">*</text><!--MD5=[3a7160359a88228a7beaf84168bee821]
reverse link Implementation to Implementation--><path codeLine="64" d="M522.4744,195.9405 C539.3331,196.3015 552,198.1547 552,201.5 C552,205.1914 536.5768,207.0659 517.1172,207.1236 " fill="none" id="Implementation-backto-Implementation" style="stroke:#A80036;stroke-width:1.0;"/><polygon fill="#A80036" points="517.1172,195.8764,526.0686,199.9841,522.1168,195.9364,526.1646,191.9847,517.1172,195.8764" style="stroke:#A80036;stroke-width:1.0;"/><text fill="#000000" font-family="sans-serif" font-size="13" lengthAdjust="spacing" textLength="29" x="558" y="206.5684">uses</text><text fill="#000000" font-family="sans-serif" font-size="13" lengthAdjust="spacing" textLength="6" x="524.8705" y="191.867">*</text><!--MD5=[59081bbf259a2ec519ef3e17ef2ee3f4]
link Implementation to Implementation--><path codeLine="65" d="M517.0297,191.0673 C555.5278,188.5009 593,191.9785 593,201.5 C593,210.5752 558.9584,214.1598 522.433,212.2538 " fill="none" id="Implementation-to-Implementation" style="stroke:#A80036;stroke-width:1.0;"/><polygon fill="#A80036" points="517.0297,211.9327,525.7766,216.4595,522.0209,212.2293,526.2511,208.4736,517.0297,211.9327" style="stroke:#A80036;stroke-width:1.0;"/><text fill="#000000" font-family="sans-serif" font-size="13" lengthAdjust="spacing" textLength="104" x="599" y="206.5684">same ecosystem</text><text fill="#000000" font-family="sans-serif" font-size="13" lengthAdjust="spacing" textLength="6" x="525.1694" y="209.8996">*</text><!--MD5=[9ed1c7e88b5e32a8fcd8a3632ef99568]
reverse link SoftwareImplementation to SoftwareImplementation--><path codeLine="66" d="M704.2249,475.4105 C722.0092,476.2942 734,478.1574 734,481 C734,484.1099 719.6485,486.0475 699.0604,486.8128 " fill="none" id="SoftwareImplementation-backto-SoftwareImplementation" style="stroke:#A80036;stroke-width:1.0;"/><polygon fill="#A80036" points="699.0604,475.1872,707.8792,479.5723,704.0557,475.4032,708.2248,471.5797,699.0604,475.1872" style="stroke:#A80036;stroke-width:1.0;"/><text fill="#000000" font-family="sans-serif" font-size="13" lengthAdjust="spacing" textLength="47" x="740" y="486.0684">plugins</text><text fill="#000000" font-family="sans-serif" font-size="13" lengthAdjust="spacing" textLength="6" x="707.0934" y="471.8746">*</text><!--MD5=[5bf9a8226022b0f496d42e2c2ec135f4]
link SoftwareImplementation to SoftwareImplementation--><path codeLine="67" d="M699.0755,468.7206 C749.1117,467.9318 793,472.0249 793,481 C793,489.6596 752.1433,493.7744 704.3283,493.3445 " fill="none" id="SoftwareImplementation-to-SoftwareImplementation" style="stroke:#A80036;stroke-width:1.0;"/><polygon fill="#A80036" points="699.0755,493.2794,708.0251,497.3909,704.0751,493.3415,708.1245,489.3916,699.0755,493.2794" style="stroke:#A80036;stroke-width:1.0;"/><text fill="#000000" font-family="sans-serif" font-size="13" lengthAdjust="spacing" textLength="63" x="799" y="486.0684">applied to</text><text fill="#000000" font-family="sans-serif" font-size="13" lengthAdjust="spacing" textLength="6" x="707.1095" y="491.1823">*</text><!--MD5=[27e6685d564d07c7ea7a228449e557ed]
link **DeveloperTool** to **OpenStandard**--><!--MD5=[72c6bf740fe584ece45d53ddf8562af8]
@startuml

class Landscape {}

class Category {
  +name: string
}

enum Status {
  +ACTIVE
  +INACTIVE
  +UNKNOWN
}

class Link {
  +name: string
  +url : string
}

abstract class Implementation {
  +name: string
}

abstract class Community extends Implementation {
}

class **EUFundedProject** extends Community {
}

class **OpenSourceCommunity** extends Community {
}

abstract class ToscaImplementation extends Implementation {
  +supported_tosca_profiles: list<string>
  +target_environments: list<string>
}

class **OpenStandard** extends ToscaImplementation {
}

abstract class SoftwareImplementation extends ToscaImplementation {
  +usage_modes: list<string>
  +programming_languages: list<string>
}

class **ModelingTool** extends SoftwareImplementation {
}

class **MarketPlace** extends SoftwareImplementation {
}

class **Orchestrator** extends SoftwareImplementation {
}

class **DeveloperTool** extends SoftwareImplementation {
}

Landscape *- - "*" Category : categories
Category *- "*" Implementation : implementations
Category *-up- "*" Category : categories
Implementation *-up- Status : status
Implementation *-up- "*" Link : links
"**EUFundedProject**" o-right- "*" SoftwareImplementation : contributes
Community o-right- "*" SoftwareImplementation : hosts
Implementation -up-> "*" Implementation : uses
Implementation - -> "*" Implementation : same ecosystem
SoftwareImplementation -up-> "*" SoftwareImplementation : plugins
SoftwareImplementation - -> "*" SoftwareImplementation : applied to

"**DeveloperTool**" -[hidden] "**OpenStandard**"

@end

PlantUML version 1.2021.13(Mon Nov 01 12:38:45 CET 2021)
(GPL source distribution)
Java Runtime: Java(TM) SE Runtime Environment
JVM: Java HotSpot(TM) 64-Bit Server VM
Default Encoding: UTF-8
Language: fr
Country: FR
--></g></svg>