<?xml version="1.0" encoding="UTF-8" standalone="no"?><svg xmlns="http://www.w3.org/2000/svg" xmlns:xlink="http://www.w3.org/1999/xlink" contentScriptType="application/ecmascript" contentStyleType="text/css" height="628px" preserveAspectRatio="none" style="width:965px;height:628px;background:#FFFFFF;" version="1.1" viewBox="0 0 965 628" width="965px" zoomAndPan="magnify"><defs><filter height="300%" id="flp8q96yoqhq9" width="300%" x="-1" y="-1"><feGaussianBlur result="blurOut" stdDeviation="2.0"/><feColorMatrix in="blurOut" result="blurOut2" type="matrix" values="0 0 0 0 0 0 0 0 0 0 0 0 0 0 0 0 0 0 .4 0"/><feOffset dx="4.0" dy="4.0" in="blurOut2" result="blurOut3"/><feBlend in="SourceGraphic" in2="blurOut3" mode="normal"/></filter></defs><g><!--MD5=[8df5aae6f3a262482c1d6bb5dacc8acf]
class Landscape--><rect codeLine="2" fill="#FEFECE" filter="url(#flp8q96yoqhq9)" height="48" id="Landscape" style="stroke:#A80036;stroke-width:1.5;" width="94" x="64.5" y="20"/><ellipse cx="79.5" cy="36" fill="#ADD1B2" rx="11" ry="11" style="stroke:#A80036;stroke-width:1.0;"/><path d="M82.4731,41.6431 Q81.8921,41.9419 81.2529,42.0913 Q80.6138,42.2407 79.9082,42.2407 Q77.4014,42.2407 76.0815,40.5889 Q74.7617,38.937 74.7617,35.8159 Q74.7617,32.6865 76.0815,31.0347 Q77.4014,29.3828 79.9082,29.3828 Q80.6138,29.3828 81.2612,29.5322 Q81.9087,29.6816 82.4731,29.9805 L82.4731,32.7031 Q81.8423,32.1221 81.2488,31.8523 Q80.6553,31.5825 80.0244,31.5825 Q78.6797,31.5825 77.9949,32.6492 Q77.3101,33.7158 77.3101,35.8159 Q77.3101,37.9077 77.9949,38.9744 Q78.6797,40.041 80.0244,40.041 Q80.6553,40.041 81.2488,39.7712 Q81.8423,39.5015 82.4731,38.9204 Z " fill="#000000"/><text fill="#000000" font-family="sans-serif" font-size="12" lengthAdjust="spacing" textLength="62" x="93.5" y="40.5352">Landscape</text><line style="stroke:#A80036;stroke-width:1.5;" x1="65.5" x2="157.5" y1="52" y2="52"/><line style="stroke:#A80036;stroke-width:1.5;" x1="65.5" x2="157.5" y1="60" y2="60"/><!--MD5=[a96594a83e2ecdc78cbf17c2ddf01934]
class Category--><rect codeLine="4" fill="#FEFECE" filter="url(#flp8q96yoqhq9)" height="60.9551" id="Category" style="stroke:#A80036;stroke-width:1.5;" width="93" x="65" y="158"/><ellipse cx="84.5" cy="174" fill="#ADD1B2" rx="11" ry="11" style="stroke:#A80036;stroke-width:1.0;"/><path d="M87.4731,179.6431 Q86.8921,179.9419 86.2529,180.0913 Q85.6138,180.2407 84.9082,180.2407 Q82.4014,180.2407 81.0815,178.5889 Q79.7617,176.937 79.7617,173.8159 Q79.7617,170.6865 81.0815,169.0347 Q82.4014,167.3828 84.9082,167.3828 Q85.6138,167.3828 86.2612,167.5322 Q86.9087,167.6816 87.4731,167.9805 L87.4731,170.7031 Q86.8423,170.1221 86.2488,169.8523 Q85.6553,169.5825 85.0244,169.5825 Q83.6797,169.5825 82.9949,170.6492 Q82.3101,171.7158 82.3101,173.8159 Q82.3101,175.9077 82.9949,176.9744 Q83.6797,178.041 85.0244,178.041 Q85.6553,178.041 86.2488,177.7712 Q86.8423,177.5015 87.4731,176.9204 Z " fill="#000000"/><text fill="#000000" font-family="sans-serif" font-size="12" lengthAdjust="spacing" textLength="51" x="99.5" y="178.5352">Category</text><line style="stroke:#A80036;stroke-width:1.5;" x1="66" x2="157" y1="190" y2="190"/><ellipse cx="76" cy="201" rx="3" ry="3" style="stroke:#038048;stroke-width:1.0;fill:none;"/><text fill="#000000" font-family="sans-serif" font-size="11" lengthAdjust="spacing" textLength="67" x="85" y="204.6348">name: string</text><line style="stroke:#A80036;stroke-width:1.5;" x1="66" x2="157" y1="210.9551" y2="210.9551"/><!--MD5=[e3d83ec5fd90ea9f3f2bfe265cb53458]
class Status--><rect codeLine="8" fill="#FEFECE" filter="url(#flp8q96yoqhq9)" height="73.9102" id="Status" style="stroke:#A80036;stroke-width:1.5;" width="76" x="358.5" y="7"/><ellipse cx="378" cy="23" fill="#EB937F" rx="11" ry="11" style="stroke:#A80036;stroke-width:1.0;"/><path d="M382.1143,29 L374.3945,29 L374.3945,16.6069 L382.1143,16.6069 L382.1143,18.7651 L376.8433,18.7651 L376.8433,21.438 L381.6162,21.438 L381.6162,23.5962 L376.8433,23.5962 L376.8433,26.8418 L382.1143,26.8418 Z " fill="#000000"/><text fill="#000000" font-family="sans-serif" font-size="12" lengthAdjust="spacing" textLength="34" x="393" y="27.5352">Status</text><line style="stroke:#A80036;stroke-width:1.5;" x1="359.5" x2="433.5" y1="39" y2="39"/><ellipse cx="369.5" cy="50" rx="3" ry="3" style="stroke:#038048;stroke-width:1.0;fill:none;"/><text fill="#000000" font-family="sans-serif" font-size="11" lengthAdjust="spacing" textLength="39" x="378.5" y="53.6348">ACTIVE</text><ellipse cx="369.5" cy="62.9551" rx="3" ry="3" style="stroke:#038048;stroke-width:1.0;fill:none;"/><text fill="#000000" font-family="sans-serif" font-size="11" lengthAdjust="spacing" textLength="50" x="378.5" y="66.5898">INACTIVE</text><line style="stroke:#A80036;stroke-width:1.5;" x1="359.5" x2="433.5" y1="72.9102" y2="72.9102"/><!--MD5=[d189332174d53557e6def82bbd003869]
class Link--><rect codeLine="13" fill="#FEFECE" filter="url(#flp8q96yoqhq9)" height="73.9102" id="Link" style="stroke:#A80036;stroke-width:1.5;" width="93" x="470" y="7"/><ellipse cx="502.1" cy="23" fill="#ADD1B2" rx="11" ry="11" style="stroke:#A80036;stroke-width:1.0;"/><path d="M505.0731,28.6431 Q504.4921,28.9419 503.8529,29.0913 Q503.2138,29.2407 502.5082,29.2407 Q500.0014,29.2407 498.6815,27.5889 Q497.3617,25.937 497.3617,22.8159 Q497.3617,19.6865 498.6815,18.0347 Q500.0014,16.3828 502.5082,16.3828 Q503.2138,16.3828 503.8612,16.5322 Q504.5087,16.6816 505.0731,16.9805 L505.0731,19.7031 Q504.4423,19.1221 503.8488,18.8523 Q503.2553,18.5825 502.6244,18.5825 Q501.2797,18.5825 500.5949,19.6492 Q499.9101,20.7158 499.9101,22.8159 Q499.9101,24.9077 500.5949,25.9744 Q501.2797,27.041 502.6244,27.041 Q503.2553,27.041 503.8488,26.7712 Q504.4423,26.5015 505.0731,25.9204 Z " fill="#000000"/><text fill="#000000" font-family="sans-serif" font-size="12" lengthAdjust="spacing" textLength="23" x="519.9" y="27.5352">Link</text><line style="stroke:#A80036;stroke-width:1.5;" x1="471" x2="562" y1="39" y2="39"/><ellipse cx="481" cy="50" rx="3" ry="3" style="stroke:#038048;stroke-width:1.0;fill:none;"/><text fill="#000000" font-family="sans-serif" font-size="11" lengthAdjust="spacing" textLength="67" x="490" y="53.6348">name: string</text><ellipse cx="481" cy="62.9551" rx="3" ry="3" style="stroke:#038048;stroke-width:1.0;fill:none;"/><text fill="#000000" font-family="sans-serif" font-size="11" lengthAdjust="spacing" textLength="56" x="490" y="66.5898">url : string</text><line style="stroke:#A80036;stroke-width:1.5;" x1="471" x2="562" y1="72.9102" y2="72.9102"/><!--MD5=[62157b509973564ddc878c05b423c99e]
class Implementation--><rect codeLine="18" fill="#FEFECE" filter="url(#flp8q96yoqhq9)" height="60.9551" id="Implementation" style="stroke:#A80036;stroke-width:1.5;" width="121" x="396" y="158"/><ellipse cx="411" cy="174" fill="#A9DCDF" rx="11" ry="11" style="stroke:#A80036;stroke-width:1.0;"/><path d="M411.1133,169.3481 L409.9595,174.4199 L412.2754,174.4199 Z M409.6191,167.1069 L412.6157,167.1069 L415.9609,179.5 L413.5122,179.5 L412.7485,176.437 L409.4697,176.437 L408.7227,179.5 L406.2739,179.5 Z " fill="#000000"/><text fill="#000000" font-family="sans-serif" font-size="12" font-style="italic" lengthAdjust="spacing" textLength="89" x="425" y="178.5352">Implementation</text><line style="stroke:#A80036;stroke-width:1.5;" x1="397" x2="516" y1="190" y2="190"/><ellipse cx="407" cy="201" rx="3" ry="3" style="stroke:#038048;stroke-width:1.0;fill:none;"/><text fill="#000000" font-family="sans-serif" font-size="11" lengthAdjust="spacing" textLength="67" x="416" y="204.6348">name: string</text><line style="stroke:#A80036;stroke-width:1.5;" x1="397" x2="516" y1="210.9551" y2="210.9551"/><!--MD5=[668d633d11bedc8952753581a2dda3db]
class Community--><rect codeLine="22" fill="#FEFECE" filter="url(#flp8q96yoqhq9)" height="48" id="Community" style="stroke:#A80036;stroke-width:1.5;" width="96" x="287.5" y="293"/><ellipse cx="302.5" cy="309" fill="#A9DCDF" rx="11" ry="11" style="stroke:#A80036;stroke-width:1.0;"/><path d="M302.6133,304.3481 L301.4595,309.4199 L303.7754,309.4199 Z M301.1191,302.1069 L304.1157,302.1069 L307.4609,314.5 L305.0122,314.5 L304.2485,311.437 L300.9697,311.437 L300.2227,314.5 L297.7739,314.5 Z " fill="#000000"/><text fill="#000000" font-family="sans-serif" font-size="12" font-style="italic" lengthAdjust="spacing" textLength="64" x="316.5" y="313.5352">Community</text><line style="stroke:#A80036;stroke-width:1.5;" x1="288.5" x2="382.5" y1="325" y2="325"/><line style="stroke:#A80036;stroke-width:1.5;" x1="288.5" x2="382.5" y1="333" y2="333"/><!--MD5=[a2b4d36bd85f5efca05149052cb67308]
class **EUFundedProject**--><rect codeLine="25" fill="#FEFECE" filter="url(#flp8q96yoqhq9)" height="48" id="**EUFundedProject**" style="stroke:#A80036;stroke-width:1.5;" width="136" x="221.5" y="444"/><ellipse cx="236.5" cy="460" fill="#ADD1B2" rx="11" ry="11" style="stroke:#A80036;stroke-width:1.0;"/><path d="M239.4731,465.6431 Q238.8921,465.9419 238.2529,466.0913 Q237.6138,466.2407 236.9082,466.2407 Q234.4014,466.2407 233.0815,464.5889 Q231.7617,462.937 231.7617,459.8159 Q231.7617,456.6865 233.0815,455.0347 Q234.4014,453.3828 236.9082,453.3828 Q237.6138,453.3828 238.2612,453.5322 Q238.9087,453.6816 239.4731,453.9805 L239.4731,456.7031 Q238.8423,456.1221 238.2488,455.8523 Q237.6553,455.5825 237.0244,455.5825 Q235.6797,455.5825 234.9949,456.6492 Q234.3101,457.7158 234.3101,459.8159 Q234.3101,461.9077 234.9949,462.9744 Q235.6797,464.041 237.0244,464.041 Q237.6553,464.041 238.2488,463.7712 Q238.8423,463.5015 239.4731,462.9204 Z " fill="#000000"/><text fill="#000000" font-family="sans-serif" font-size="12" font-weight="bold" lengthAdjust="spacing" textLength="104" x="250.5" y="464.5352">EUFundedProject</text><line style="stroke:#A80036;stroke-width:1.5;" x1="222.5" x2="356.5" y1="476" y2="476"/><line style="stroke:#A80036;stroke-width:1.5;" x1="222.5" x2="356.5" y1="484" y2="484"/><!--MD5=[d7b8166d2cd7f8f6f75663b9329b35c0]
class **OpenSourceCommunity**--><rect codeLine="28" fill="#FEFECE" filter="url(#flp8q96yoqhq9)" height="48" id="**OpenSourceCommunity**" style="stroke:#A80036;stroke-width:1.5;" width="179" x="7" y="444"/><ellipse cx="22" cy="460" fill="#ADD1B2" rx="11" ry="11" style="stroke:#A80036;stroke-width:1.0;"/><path d="M24.9731,465.6431 Q24.3921,465.9419 23.7529,466.0913 Q23.1138,466.2407 22.4082,466.2407 Q19.9014,466.2407 18.5815,464.5889 Q17.2617,462.937 17.2617,459.8159 Q17.2617,456.6865 18.5815,455.0347 Q19.9014,453.3828 22.4082,453.3828 Q23.1138,453.3828 23.7612,453.5322 Q24.4087,453.6816 24.9731,453.9805 L24.9731,456.7031 Q24.3423,456.1221 23.7488,455.8523 Q23.1553,455.5825 22.5244,455.5825 Q21.1797,455.5825 20.4949,456.6492 Q19.8101,457.7158 19.8101,459.8159 Q19.8101,461.9077 20.4949,462.9744 Q21.1797,464.041 22.5244,464.041 Q23.1553,464.041 23.7488,463.7712 Q24.3423,463.5015 24.9731,462.9204 Z " fill="#000000"/><text fill="#000000" font-family="sans-serif" font-size="12" font-weight="bold" lengthAdjust="spacing" textLength="147" x="36" y="464.5352">OpenSourceCommunity</text><line style="stroke:#A80036;stroke-width:1.5;" x1="8" x2="185" y1="476" y2="476"/><line style="stroke:#A80036;stroke-width:1.5;" x1="8" x2="185" y1="484" y2="484"/><!--MD5=[b73e80794168e6e90d941ce162d7801e]
class ToscaImplementation--><rect codeLine="31" fill="#FEFECE" filter="url(#flp8q96yoqhq9)" height="73.9102" id="ToscaImplementation" style="stroke:#A80036;stroke-width:1.5;" width="236" x="464.5" y="280"/><ellipse cx="516.75" cy="296" fill="#A9DCDF" rx="11" ry="11" style="stroke:#A80036;stroke-width:1.0;"/><path d="M516.8633,291.3481 L515.7095,296.4199 L518.0254,296.4199 Z M515.3691,289.1069 L518.3657,289.1069 L521.7109,301.5 L519.2622,301.5 L518.4985,298.437 L515.2197,298.437 L514.4727,301.5 L512.0239,301.5 Z " fill="#000000"/><text fill="#000000" font-family="sans-serif" font-size="12" font-style="italic" lengthAdjust="spacing" textLength="123" x="537.25" y="300.5352">ToscaImplementation</text><line style="stroke:#A80036;stroke-width:1.5;" x1="465.5" x2="699.5" y1="312" y2="312"/><ellipse cx="475.5" cy="323" rx="3" ry="3" style="stroke:#038048;stroke-width:1.0;fill:none;"/><text fill="#000000" font-family="sans-serif" font-size="11" lengthAdjust="spacing" textLength="210" x="484.5" y="326.6348">supported_tosca_profiles: list&lt;string&gt;</text><ellipse cx="475.5" cy="335.9551" rx="3" ry="3" style="stroke:#038048;stroke-width:1.0;fill:none;"/><text fill="#000000" font-family="sans-serif" font-size="11" lengthAdjust="spacing" textLength="184" x="484.5" y="339.5898">target_environments: list&lt;string&gt;</text><line style="stroke:#A80036;stroke-width:1.5;" x1="465.5" x2="699.5" y1="345.9102" y2="345.9102"/><!--MD5=[531b280ccf420cab9465d43c3c96bcc9]
class **OpenStandard**--><rect codeLine="36" fill="#FEFECE" filter="url(#flp8q96yoqhq9)" height="48" id="**OpenStandard**" style="stroke:#A80036;stroke-width:1.5;" width="120" x="831.5" y="566"/><ellipse cx="846.5" cy="582" fill="#ADD1B2" rx="11" ry="11" style="stroke:#A80036;stroke-width:1.0;"/><path d="M849.4731,587.6431 Q848.8921,587.9419 848.2529,588.0913 Q847.6138,588.2407 846.9082,588.2407 Q844.4014,588.2407 843.0815,586.5889 Q841.7617,584.937 841.7617,581.8159 Q841.7617,578.6865 843.0815,577.0347 Q844.4014,575.3828 846.9082,575.3828 Q847.6138,575.3828 848.2612,575.5322 Q848.9087,575.6816 849.4731,575.9805 L849.4731,578.7031 Q848.8423,578.1221 848.2488,577.8523 Q847.6553,577.5825 847.0244,577.5825 Q845.6797,577.5825 844.9949,578.6492 Q844.3101,579.7158 844.3101,581.8159 Q844.3101,583.9077 844.9949,584.9744 Q845.6797,586.041 847.0244,586.041 Q847.6553,586.041 848.2488,585.7712 Q848.8423,585.5015 849.4731,584.9204 Z " fill="#000000"/><text fill="#000000" font-family="sans-serif" font-size="12" font-weight="bold" lengthAdjust="spacing" textLength="88" x="860.5" y="586.5352">OpenStandard</text><line style="stroke:#A80036;stroke-width:1.5;" x1="832.5" x2="950.5" y1="598" y2="598"/><line style="stroke:#A80036;stroke-width:1.5;" x1="832.5" x2="950.5" y1="606" y2="606"/><!--MD5=[5de95931d76f65510359a9a8eb0257d0]
class SoftwareImplementation--><rect codeLine="39" fill="#FEFECE" filter="url(#flp8q96yoqhq9)" height="73.9102" id="SoftwareImplementation" style="stroke:#A80036;stroke-width:1.5;" width="233" x="466" y="431"/><ellipse cx="509.35" cy="447" fill="#A9DCDF" rx="11" ry="11" style="stroke:#A80036;stroke-width:1.0;"/><path d="M509.4633,442.3481 L508.3095,447.4199 L510.6254,447.4199 Z M507.9691,440.1069 L510.9657,440.1069 L514.3109,452.5 L511.8622,452.5 L511.0985,449.437 L507.8197,449.437 L507.0727,452.5 L504.6239,452.5 Z " fill="#000000"/><text fill="#000000" font-family="sans-serif" font-size="12" font-style="italic" lengthAdjust="spacing" textLength="138" x="529.65" y="451.5352">SoftwareImplementation</text><line style="stroke:#A80036;stroke-width:1.5;" x1="467" x2="698" y1="463" y2="463"/><ellipse cx="477" cy="474" rx="3" ry="3" style="stroke:#038048;stroke-width:1.0;fill:none;"/><text fill="#000000" font-family="sans-serif" font-size="11" lengthAdjust="spacing" textLength="146" x="486" y="477.6348">usage_modes: list&lt;string&gt;</text><ellipse cx="477" cy="486.9551" rx="3" ry="3" style="stroke:#038048;stroke-width:1.0;fill:none;"/><text fill="#000000" font-family="sans-serif" font-size="11" lengthAdjust="spacing" textLength="207" x="486" y="490.5898">programming_languages: list&lt;string&gt;</text><line style="stroke:#A80036;stroke-width:1.5;" x1="467" x2="698" y1="496.9102" y2="496.9102"/><!--MD5=[b088813d5e563f78823af1e13f9643b4]
class **ModelingTool**--><rect codeLine="44" fill="#FEFECE" filter="url(#flp8q96yoqhq9)" height="48" id="**ModelingTool**" style="stroke:#A80036;stroke-width:1.5;" width="118" x="233.5" y="566"/><ellipse cx="248.5" cy="582" fill="#ADD1B2" rx="11" ry="11" style="stroke:#A80036;stroke-width:1.0;"/><path d="M251.4731,587.6431 Q250.8921,587.9419 250.2529,588.0913 Q249.6138,588.2407 248.9082,588.2407 Q246.4014,588.2407 245.0815,586.5889 Q243.7617,584.937 243.7617,581.8159 Q243.7617,578.6865 245.0815,577.0347 Q246.4014,575.3828 248.9082,575.3828 Q249.6138,575.3828 250.2612,575.5322 Q250.9087,575.6816 251.4731,575.9805 L251.4731,578.7031 Q250.8423,578.1221 250.2488,577.8523 Q249.6553,577.5825 249.0244,577.5825 Q247.6797,577.5825 246.9949,578.6492 Q246.3101,579.7158 246.3101,581.8159 Q246.3101,583.9077 246.9949,584.9744 Q247.6797,586.041 249.0244,586.041 Q249.6553,586.041 250.2488,585.7712 Q250.8423,585.5015 251.4731,584.9204 Z " fill="#000000"/><text fill="#000000" font-family="sans-serif" font-size="12" font-weight="bold" lengthAdjust="spacing" textLength="86" x="262.5" y="586.5352">ModelingTool</text><line style="stroke:#A80036;stroke-width:1.5;" x1="234.5" x2="350.5" y1="598" y2="598"/><line style="stroke:#A80036;stroke-width:1.5;" x1="234.5" x2="350.5" y1="606" y2="606"/><!--MD5=[4c74589ac0f8e501e79de34bc72af2ad]
class **MarketPlace**--><rect codeLine="47" fill="#FEFECE" filter="url(#flp8q96yoqhq9)" height="48" id="**MarketPlace**" style="stroke:#A80036;stroke-width:1.5;" width="106" x="386.5" y="566"/><ellipse cx="401.5" cy="582" fill="#ADD1B2" rx="11" ry="11" style="stroke:#A80036;stroke-width:1.0;"/><path d="M404.4731,587.6431 Q403.8921,587.9419 403.2529,588.0913 Q402.6138,588.2407 401.9082,588.2407 Q399.4014,588.2407 398.0815,586.5889 Q396.7617,584.937 396.7617,581.8159 Q396.7617,578.6865 398.0815,577.0347 Q399.4014,575.3828 401.9082,575.3828 Q402.6138,575.3828 403.2612,575.5322 Q403.9087,575.6816 404.4731,575.9805 L404.4731,578.7031 Q403.8423,578.1221 403.2488,577.8523 Q402.6553,577.5825 402.0244,577.5825 Q400.6797,577.5825 399.9949,578.6492 Q399.3101,579.7158 399.3101,581.8159 Q399.3101,583.9077 399.9949,584.9744 Q400.6797,586.041 402.0244,586.041 Q402.6553,586.041 403.2488,585.7712 Q403.8423,585.5015 404.4731,584.9204 Z " fill="#000000"/><text fill="#000000" font-family="sans-serif" font-size="12" font-weight="bold" lengthAdjust="spacing" textLength="74" x="415.5" y="586.5352">MarketPlace</text><line style="stroke:#A80036;stroke-width:1.5;" x1="387.5" x2="491.5" y1="598" y2="598"/><line style="stroke:#A80036;stroke-width:1.5;" x1="387.5" x2="491.5" y1="606" y2="606"/><!--MD5=[cd01a1854c7e81544da43c1872e6f2c6]
class **Orchestrator**--><rect codeLine="50" fill="#FEFECE" filter="url(#flp8q96yoqhq9)" height="48" id="**Orchestrator**" style="stroke:#A80036;stroke-width:1.5;" width="110" x="527.5" y="566"/><ellipse cx="542.5" cy="582" fill="#ADD1B2" rx="11" ry="11" style="stroke:#A80036;stroke-width:1.0;"/><path d="M545.4731,587.6431 Q544.8921,587.9419 544.2529,588.0913 Q543.6138,588.2407 542.9082,588.2407 Q540.4014,588.2407 539.0815,586.5889 Q537.7617,584.937 537.7617,581.8159 Q537.7617,578.6865 539.0815,577.0347 Q540.4014,575.3828 542.9082,575.3828 Q543.6138,575.3828 544.2612,575.5322 Q544.9087,575.6816 545.4731,575.9805 L545.4731,578.7031 Q544.8423,578.1221 544.2488,577.8523 Q543.6553,577.5825 543.0244,577.5825 Q541.6797,577.5825 540.9949,578.6492 Q540.3101,579.7158 540.3101,581.8159 Q540.3101,583.9077 540.9949,584.9744 Q541.6797,586.041 543.0244,586.041 Q543.6553,586.041 544.2488,585.7712 Q544.8423,585.5015 545.4731,584.9204 Z " fill="#000000"/><text fill="#000000" font-family="sans-serif" font-size="12" font-weight="bold" lengthAdjust="spacing" textLength="78" x="556.5" y="586.5352">Orchestrator</text><line style="stroke:#A80036;stroke-width:1.5;" x1="528.5" x2="636.5" y1="598" y2="598"/><line style="stroke:#A80036;stroke-width:1.5;" x1="528.5" x2="636.5" y1="606" y2="606"/><!--MD5=[078f76c2f41ce9c09ebfffa16dcfd95b]
class **DeveloperTool**--><rect codeLine="53" fill="#FEFECE" filter="url(#flp8q96yoqhq9)" height="48" id="**DeveloperTool**" style="stroke:#A80036;stroke-width:1.5;" width="123" x="673" y="566"/><ellipse cx="688" cy="582" fill="#ADD1B2" rx="11" ry="11" style="stroke:#A80036;stroke-width:1.0;"/><path d="M690.9731,587.6431 Q690.3921,587.9419 689.7529,588.0913 Q689.1138,588.2407 688.4082,588.2407 Q685.9014,588.2407 684.5815,586.5889 Q683.2617,584.937 683.2617,581.8159 Q683.2617,578.6865 684.5815,577.0347 Q685.9014,575.3828 688.4082,575.3828 Q689.1138,575.3828 689.7612,575.5322 Q690.4087,575.6816 690.9731,575.9805 L690.9731,578.7031 Q690.3423,578.1221 689.7488,577.8523 Q689.1553,577.5825 688.5244,577.5825 Q687.1797,577.5825 686.4949,578.6492 Q685.8101,579.7158 685.8101,581.8159 Q685.8101,583.9077 686.4949,584.9744 Q687.1797,586.041 688.5244,586.041 Q689.1553,586.041 689.7488,585.7712 Q690.3423,585.5015 690.9731,584.9204 Z " fill="#000000"/><text fill="#000000" font-family="sans-serif" font-size="12" font-weight="bold" lengthAdjust="spacing" textLength="91" x="702" y="586.5352">DeveloperTool</text><line style="stroke:#A80036;stroke-width:1.5;" x1="674" x2="795" y1="598" y2="598"/><line style="stroke:#A80036;stroke-width:1.5;" x1="674" x2="795" y1="606" y2="606"/><!--MD5=[0631ec619a05f4e28d7ff39bbf79e13b]
reverse link Implementation to Community--><path d="M413.5331,234.1302 C394.8602,253.9604 373.7484,276.3809 358.197,292.8961 " fill="none" id="Implementation-backto-Community" style="stroke:#A80036;stroke-width:1.0;"/><polygon fill="none" points="408.7104,229.0409,427.5175,219.279,418.9029,238.6385,408.7104,229.0409" style="stroke:#A80036;stroke-width:1.0;"/><!--MD5=[1cb40176bdeb2658094b8a65ba879303]
reverse link Community to **EUFundedProject**--><path d="M322.1691,360.7602 C313.9324,387.7981 303.6731,421.4754 296.8724,443.7994 " fill="none" id="Community-backto-**EUFundedProject**" style="stroke:#A80036;stroke-width:1.0;"/><polygon fill="none" points="315.5848,358.3528,328.1093,341.2608,328.9771,362.4326,315.5848,358.3528" style="stroke:#A80036;stroke-width:1.0;"/><!--MD5=[feb01a3f944eb66deeb28ca8a2f80a10]
reverse link Community to **OpenSourceCommunity**--><path d="M280.2644,351.8978 C235.569,380.1363 173.8008,419.1614 134.4987,443.9925 " fill="none" id="Community-backto-**OpenSourceCommunity**" style="stroke:#A80036;stroke-width:1.0;"/><polygon fill="none" points="276.7185,345.8581,297.3655,341.0934,284.1963,357.6938,276.7185,345.8581" style="stroke:#A80036;stroke-width:1.0;"/><!--MD5=[d4d6ec7611b00ba2bb478bdf43c5506d]
reverse link Implementation to ToscaImplementation--><path d="M500.7741,233.6525 C515.5037,248.6744 531.7356,265.2284 545.8255,279.5978 " fill="none" id="Implementation-backto-ToscaImplementation" style="stroke:#A80036;stroke-width:1.0;"/><polygon fill="none" points="495.6846,238.4602,486.6801,219.279,505.6808,228.6584,495.6846,238.4602" style="stroke:#A80036;stroke-width:1.0;"/><!--MD5=[e4962b214dd56a45f0d90abe4688dcab]
reverse link ToscaImplementation to **OpenStandard**--><path d="M693.6121,363.2421 C728.1597,381.0661 764.6996,403.7962 793.5,431 C835.4598,470.6337 866.4483,532.0218 881.4366,565.7509 " fill="none" id="ToscaImplementation-backto-**OpenStandard**" style="stroke:#A80036;stroke-width:1.0;"/><polygon fill="none" points="690.0301,369.2788,675.2346,354.1099,696.2603,356.7414,690.0301,369.2788" style="stroke:#A80036;stroke-width:1.0;"/><!--MD5=[c66e18cb8a1ac478f21d737d822b197e]
reverse link ToscaImplementation to SoftwareImplementation--><path d="M582.5,374.359 C582.5,393.287 582.5,413.832 582.5,430.8421 " fill="none" id="ToscaImplementation-backto-SoftwareImplementation" style="stroke:#A80036;stroke-width:1.0;"/><polygon fill="none" points="575.5001,374.3259,582.5,354.3259,589.5001,374.3258,575.5001,374.3259" style="stroke:#A80036;stroke-width:1.0;"/><!--MD5=[bf99f1a4e4a67cfd467713e12ce7c7de]
reverse link SoftwareImplementation to **ModelingTool**--><path d="M475.7179,512.9221 C433.0166,530.8861 385.5536,550.8533 349.6364,565.9633 " fill="none" id="SoftwareImplementation-backto-**ModelingTool**" style="stroke:#A80036;stroke-width:1.0;"/><polygon fill="none" points="473.1597,506.4042,494.3093,505.1009,478.5886,519.3087,473.1597,506.4042" style="stroke:#A80036;stroke-width:1.0;"/><!--MD5=[48b1a51b593e97ff0c8d6e008d830988]
reverse link SoftwareImplementation to **MarketPlace**--><path d="M523.4829,518.3503 C504.3206,534.6985 483.9239,552.0999 468.0302,565.6595 " fill="none" id="SoftwareImplementation-backto-**MarketPlace**" style="stroke:#A80036;stroke-width:1.0;"/><polygon fill="none" points="519.0598,512.9224,538.8183,505.2669,528.1464,523.573,519.0598,512.9224" style="stroke:#A80036;stroke-width:1.0;"/><!--MD5=[ce5ea10a9ed05477d7df57ffdac6b799]
reverse link SoftwareImplementation to **Orchestrator**--><path d="M582.5,525.4774 C582.5,539.6398 582.5,554.0563 582.5,565.6595 " fill="none" id="SoftwareImplementation-backto-**Orchestrator**" style="stroke:#A80036;stroke-width:1.0;"/><polygon fill="none" points="575.5001,525.267,582.5,505.2669,589.5001,525.2669,575.5001,525.267" style="stroke:#A80036;stroke-width:1.0;"/><!--MD5=[8df844d810bfd97a09843898ba5183b8]
reverse link SoftwareImplementation to **DeveloperTool**--><path d="M644.6239,517.8626 C665.1678,534.3518 687.1121,551.965 704.1742,565.6595 " fill="none" id="SoftwareImplementation-backto-**DeveloperTool**" style="stroke:#A80036;stroke-width:1.0;"/><polygon fill="none" points="640.1467,523.245,628.9309,505.2669,648.9099,512.3268,640.1467,523.245" style="stroke:#A80036;stroke-width:1.0;"/><!--MD5=[e4da2baa4fc49e5b168dbfa8ba7d6775]
reverse link Landscape to Category--><path codeLine="56" d="M111.5,81.3189 C111.5,105.1206 111.5,135.5829 111.5,157.9443 " fill="none" id="Landscape-backto-Category" style="stroke:#A80036;stroke-width:1.0;"/><polygon fill="#A80036" points="111.5,68.1861,107.5,74.1861,111.5,80.1861,115.5,74.1861,111.5,68.1861" style="stroke:#A80036;stroke-width:1.0;"/><text fill="#000000" font-family="sans-serif" font-size="13" lengthAdjust="spacing" textLength="65" x="112.5" y="124.5684">categories</text><text fill="#000000" font-family="sans-serif" font-size="13" lengthAdjust="spacing" textLength="6" x="104.8438" y="147.2269">*</text><!--MD5=[1bbb0fe1bbd6d6c018b138c568bec21c]
reverse link Category to Implementation--><path codeLine="57" d="M171.2763,188.5 C234.1996,188.5 332.7206,188.5 395.9382,188.5 " fill="none" id="Category-backto-Implementation" style="stroke:#A80036;stroke-width:1.0;"/><polygon fill="#A80036" points="158.0282,188.5,164.0282,192.5,170.0282,188.5,164.0282,184.5,158.0282,188.5" style="stroke:#A80036;stroke-width:1.0;"/><text fill="#000000" font-family="sans-serif" font-size="13" lengthAdjust="spacing" textLength="106" x="224" y="182.0684">implementations</text><text fill="#000000" font-family="sans-serif" font-size="13" lengthAdjust="spacing" textLength="6" x="382.1916" y="185.176">*</text><!--MD5=[a5725b0440277e7b298212d4ab098951]
link Category to Category--><path codeLine="58" d="M158.4007,177.3187 C177.2114,176.687 193,180.4141 193,188.5 C193,194.5645 184.1189,198.1771 171.7426,199.3378 " fill="none" id="Category-to-Category" style="stroke:#A80036;stroke-width:1.0;"/><polygon fill="#A80036" points="158.4007,199.6813,164.5017,203.5255,170.3967,199.3723,164.2957,195.5281,158.4007,199.6813" style="stroke:#A80036;stroke-width:1.0;"/><text fill="#000000" font-family="sans-serif" font-size="13" lengthAdjust="spacing" textLength="65" x="199" y="193.5684">categories</text><text fill="#000000" font-family="sans-serif" font-size="13" lengthAdjust="spacing" textLength="6" x="166.0417" y="172.0537">*</text><!--MD5=[73966f7b43aaa31981b6de17f481db63]
link Status to Implementation--><path codeLine="59" d="M411.9515,81.2123 C420.1176,100.8791 430.1814,125.116 438.6764,145.5747 " fill="none" id="Status-to-Implementation" style="stroke:#A80036;stroke-width:1.0;"/><polygon fill="#A80036" points="443.7319,157.7503,445.1252,150.6751,439.1301,146.6677,437.7368,153.7429,443.7319,157.7503" style="stroke:#A80036;stroke-width:1.0;"/><text fill="#000000" font-family="sans-serif" font-size="13" lengthAdjust="spacing" textLength="39" x="431.5" y="124.5684">status</text><!--MD5=[8c23ad07c8d7e3ec68ddd6651209b50e]
link Link to Implementation--><path codeLine="60" d="M501.0485,81.2123 C492.8824,100.8791 482.8186,125.116 474.3236,145.5747 " fill="none" id="Link-to-Implementation" style="stroke:#A80036;stroke-width:1.0;"/><polygon fill="#A80036" points="469.2681,157.7503,475.2632,153.7429,473.8699,146.6677,467.8748,150.6751,469.2681,157.7503" style="stroke:#A80036;stroke-width:1.0;"/><text fill="#000000" font-family="sans-serif" font-size="13" lengthAdjust="spacing" textLength="31" x="489.5" y="124.5684">links</text><text fill="#000000" font-family="sans-serif" font-size="13" lengthAdjust="spacing" textLength="6" x="491.8771" y="101.5">*</text><!--MD5=[5050d02a8c95f948f61fc30530109f80]
reverse link **EUFundedProject** to SoftwareImplementation--><path codeLine="61" d="M370.9798,468 C400.3276,468 434.0426,468 465.8057,468 " fill="none" id="**EUFundedProject**-backto-SoftwareImplementation" style="stroke:#A80036;stroke-width:1.0;"/><polygon fill="#FFFFFF" points="357.8257,468,363.8257,472,369.8257,468,363.8257,464,357.8257,468" style="stroke:#A80036;stroke-width:1.0;"/><text fill="#000000" font-family="sans-serif" font-size="13" lengthAdjust="spacing" textLength="72" x="375.75" y="461.5684">contributes</text><text fill="#000000" font-family="sans-serif" font-size="13" lengthAdjust="spacing" textLength="6" x="452.1378" y="465.1007">*</text><!--MD5=[e09edf5f534c028d7a09dcd1a8c0dad1]
reverse link Community to SoftwareImplementation--><path codeLine="62" d="M386.0591,347.9086 C425.3077,371.9027 479.8741,405.2611 521.5392,430.7324 " fill="none" id="Community-backto-SoftwareImplementation" style="stroke:#A80036;stroke-width:1.0;"/><polygon fill="#FFFFFF" points="374.911,341.0934,377.9438,347.6357,385.1493,347.3525,382.1165,340.8102,374.911,341.0934" style="stroke:#A80036;stroke-width:1.0;"/><text fill="#000000" font-family="sans-serif" font-size="13" lengthAdjust="spacing" textLength="35" x="467.5" y="397.5684">hosts</text><text fill="#000000" font-family="sans-serif" font-size="13" lengthAdjust="spacing" textLength="6" x="504.1462" y="420.3622">*</text><!--MD5=[3a7160359a88228a7beaf84168bee821]
reverse link Implementation to Implementation--><path codeLine="63" d="M522.4744,177.381 C539.3331,178.103 552,181.8093 552,188.5 C552,195.8828 536.5768,199.6319 517.1172,199.7473 " fill="none" id="Implementation-backto-Implementation" style="stroke:#A80036;stroke-width:1.0;"/><polygon fill="#A80036" points="517.1172,177.2527,526.0188,181.467,522.1158,177.3724,526.2104,173.4693,517.1172,177.2527" style="stroke:#A80036;stroke-width:1.0;"/><text fill="#000000" font-family="sans-serif" font-size="13" lengthAdjust="spacing" textLength="29" x="558" y="193.5684">uses</text><text fill="#000000" font-family="sans-serif" font-size="13" lengthAdjust="spacing" textLength="6" x="524.8705" y="172.5579">*</text><!--MD5=[9ed1c7e88b5e32a8fcd8a3632ef99568]
reverse link SoftwareImplementation to SoftwareImplementation--><path codeLine="64" d="M704.2249,456.821 C722.0092,458.5885 734,462.3148 734,468 C734,474.2197 719.6485,478.0949 699.0604,479.6255 " fill="none" id="SoftwareImplementation-backto-SoftwareImplementation" style="stroke:#A80036;stroke-width:1.0;"/><polygon fill="#A80036" points="699.0604,456.3745,707.6822,461.1352,704.0418,456.8054,708.3716,453.1649,699.0604,456.3745" style="stroke:#A80036;stroke-width:1.0;"/><text fill="#000000" font-family="sans-serif" font-size="13" lengthAdjust="spacing" textLength="47" x="740" y="473.0684">plugins</text><text fill="#000000" font-family="sans-serif" font-size="13" lengthAdjust="spacing" textLength="6" x="707.0934" y="452.6713">*</text><!--MD5=[27e6685d564d07c7ea7a228449e557ed]
link **DeveloperTool** to **OpenStandard**--><!--MD5=[fa9030abc3f299389d9ef2c83aa28bf7]
@startuml

class Landscape {}

class Category {
  +name: string
}

enum Status {
  +ACTIVE
  +INACTIVE
}

class Link {
  +name: string
  +url : string
}

abstract class Implementation {
  +name: string
}

abstract class Community extends Implementation {
}

class **EUFundedProject** extends Community {
}

class **OpenSourceCommunity** extends Community {
}

abstract class ToscaImplementation extends Implementation {
  +supported_tosca_profiles: list<string>
  +target_environments: list<string>
}

class **OpenStandard** extends ToscaImplementation {
}

abstract class SoftwareImplementation extends ToscaImplementation {
  +usage_modes: list<string>
  +programming_languages: list<string>
}

class **ModelingTool** extends SoftwareImplementation {
}

class **MarketPlace** extends SoftwareImplementation {
}

class **Orchestrator** extends SoftwareImplementation {
}

class **DeveloperTool** extends SoftwareImplementation {
}

Landscape *- - "*" Category : categories
Category *- "*" Implementation : implementations
Category *-up- "*" Category : categories
Implementation *-up- Status : status
Implementation *-up- "*" Link : links
"**EUFundedProject**" o-right- "*" SoftwareImplementation : contributes
Community o-right- "*" SoftwareImplementation : hosts
Implementation -up-> "*" Implementation : uses
SoftwareImplementation -up-> "*" SoftwareImplementation : plugins

"**DeveloperTool**" -[hidden] "**OpenStandard**"

@end

PlantUML version 1.2021.13(Mon Nov 01 12:38:45 CET 2021)
(GPL source distribution)
Java Runtime: Java(TM) SE Runtime Environment
JVM: Java HotSpot(TM) 64-Bit Server VM
Default Encoding: UTF-8
Language: fr
Country: FR
--></g></svg>