<?xml version="1.0" encoding="UTF-8" standalone="no"?><svg xmlns="http://www.w3.org/2000/svg" xmlns:xlink="http://www.w3.org/1999/xlink" contentScriptType="application/ecmascript" contentStyleType="text/css" height="654px" preserveAspectRatio="none" style="width:1076px;height:654px;background:#FFFFFF;" version="1.1" viewBox="0 0 1076 654" width="1076px" zoomAndPan="magnify"><defs><filter height="300%" id="fv4vhzwgookab" width="300%" x="-1" y="-1"><feGaussianBlur result="blurOut" stdDeviation="2.0"/><feColorMatrix in="blurOut" result="blurOut2" type="matrix" values="0 0 0 0 0 0 0 0 0 0 0 0 0 0 0 0 0 0 .4 0"/><feOffset dx="4.0" dy="4.0" in="blurOut2" result="blurOut3"/><feBlend in="SourceGraphic" in2="blurOut3" mode="normal"/></filter></defs><g><!--MD5=[8df5aae6f3a262482c1d6bb5dacc8acf]
class Landscape--><rect codeLine="2" fill="#FEFECE" filter="url(#fv4vhzwgookab)" height="48" id="Landscape" style="stroke:#A80036;stroke-width:1.5;" width="94" x="64.5" y="33"/><ellipse cx="79.5" cy="49" fill="#ADD1B2" rx="11" ry="11" style="stroke:#A80036;stroke-width:1.0;"/><path d="M82.4731,54.6431 Q81.8921,54.9419 81.2529,55.0913 Q80.6138,55.2407 79.9082,55.2407 Q77.4014,55.2407 76.0815,53.5889 Q74.7617,51.937 74.7617,48.8159 Q74.7617,45.6865 76.0815,44.0347 Q77.4014,42.3828 79.9082,42.3828 Q80.6138,42.3828 81.2612,42.5322 Q81.9087,42.6816 82.4731,42.9805 L82.4731,45.7031 Q81.8423,45.1221 81.2488,44.8523 Q80.6553,44.5825 80.0244,44.5825 Q78.6797,44.5825 77.9949,45.6492 Q77.3101,46.7158 77.3101,48.8159 Q77.3101,50.9077 77.9949,51.9744 Q78.6797,53.041 80.0244,53.041 Q80.6553,53.041 81.2488,52.7712 Q81.8423,52.5015 82.4731,51.9204 Z " fill="#000000"/><text fill="#000000" font-family="sans-serif" font-size="12" lengthAdjust="spacing" textLength="62" x="93.5" y="53.5352">Landscape</text><line style="stroke:#A80036;stroke-width:1.5;" x1="65.5" x2="157.5" y1="65" y2="65"/><line style="stroke:#A80036;stroke-width:1.5;" x1="65.5" x2="157.5" y1="73" y2="73"/><!--MD5=[a96594a83e2ecdc78cbf17c2ddf01934]
class Category--><rect codeLine="4" fill="#FEFECE" filter="url(#fv4vhzwgookab)" height="60.9551" id="Category" style="stroke:#A80036;stroke-width:1.5;" width="93" x="65" y="184"/><ellipse cx="84.5" cy="200" fill="#ADD1B2" rx="11" ry="11" style="stroke:#A80036;stroke-width:1.0;"/><path d="M87.4731,205.6431 Q86.8921,205.9419 86.2529,206.0913 Q85.6138,206.2407 84.9082,206.2407 Q82.4014,206.2407 81.0815,204.5889 Q79.7617,202.937 79.7617,199.8159 Q79.7617,196.6865 81.0815,195.0347 Q82.4014,193.3828 84.9082,193.3828 Q85.6138,193.3828 86.2612,193.5322 Q86.9087,193.6816 87.4731,193.9805 L87.4731,196.7031 Q86.8423,196.1221 86.2488,195.8523 Q85.6553,195.5825 85.0244,195.5825 Q83.6797,195.5825 82.9949,196.6492 Q82.3101,197.7158 82.3101,199.8159 Q82.3101,201.9077 82.9949,202.9744 Q83.6797,204.041 85.0244,204.041 Q85.6553,204.041 86.2488,203.7712 Q86.8423,203.5015 87.4731,202.9204 Z " fill="#000000"/><text fill="#000000" font-family="sans-serif" font-size="12" lengthAdjust="spacing" textLength="51" x="99.5" y="204.5352">Category</text><line style="stroke:#A80036;stroke-width:1.5;" x1="66" x2="157" y1="216" y2="216"/><ellipse cx="76" cy="227" rx="3" ry="3" style="stroke:#038048;stroke-width:1.0;fill:none;"/><text fill="#000000" font-family="sans-serif" font-size="11" lengthAdjust="spacing" textLength="67" x="85" y="230.6348">name: string</text><line style="stroke:#A80036;stroke-width:1.5;" x1="66" x2="157" y1="236.9551" y2="236.9551"/><!--MD5=[e3d83ec5fd90ea9f3f2bfe265cb53458]
class Status--><rect codeLine="8" fill="#FEFECE" filter="url(#fv4vhzwgookab)" height="99.8203" id="Status" style="stroke:#A80036;stroke-width:1.5;" width="83" x="353" y="7"/><ellipse cx="375.65" cy="23" fill="#EB937F" rx="11" ry="11" style="stroke:#A80036;stroke-width:1.0;"/><path d="M379.7643,29 L372.0445,29 L372.0445,16.6069 L379.7643,16.6069 L379.7643,18.7651 L374.4933,18.7651 L374.4933,21.438 L379.2662,21.438 L379.2662,23.5962 L374.4933,23.5962 L374.4933,26.8418 L379.7643,26.8418 Z " fill="#000000"/><text fill="#000000" font-family="sans-serif" font-size="12" lengthAdjust="spacing" textLength="34" x="391.35" y="27.5352">Status</text><line style="stroke:#A80036;stroke-width:1.5;" x1="354" x2="435" y1="39" y2="39"/><ellipse cx="364" cy="50" rx="3" ry="3" style="stroke:#038048;stroke-width:1.0;fill:none;"/><text fill="#000000" font-family="sans-serif" font-size="11" lengthAdjust="spacing" textLength="39" x="373" y="53.6348">ACTIVE</text><ellipse cx="364" cy="62.9551" rx="3" ry="3" style="stroke:#038048;stroke-width:1.0;fill:none;"/><text fill="#000000" font-family="sans-serif" font-size="11" lengthAdjust="spacing" textLength="49" x="373" y="66.5898">SLEEPING</text><ellipse cx="364" cy="75.9102" rx="3" ry="3" style="stroke:#038048;stroke-width:1.0;fill:none;"/><text fill="#000000" font-family="sans-serif" font-size="11" lengthAdjust="spacing" textLength="50" x="373" y="79.5449">INACTIVE</text><ellipse cx="364" cy="88.8652" rx="3" ry="3" style="stroke:#038048;stroke-width:1.0;fill:none;"/><text fill="#000000" font-family="sans-serif" font-size="11" lengthAdjust="spacing" textLength="57" x="373" y="92.5">UNKNOWN</text><line style="stroke:#A80036;stroke-width:1.5;" x1="354" x2="435" y1="98.8203" y2="98.8203"/><!--MD5=[d189332174d53557e6def82bbd003869]
class Link--><rect codeLine="15" fill="#FEFECE" filter="url(#fv4vhzwgookab)" height="73.9102" id="Link" style="stroke:#A80036;stroke-width:1.5;" width="93" x="471" y="20"/><ellipse cx="503.1" cy="36" fill="#ADD1B2" rx="11" ry="11" style="stroke:#A80036;stroke-width:1.0;"/><path d="M506.0731,41.6431 Q505.4921,41.9419 504.8529,42.0913 Q504.2138,42.2407 503.5082,42.2407 Q501.0014,42.2407 499.6815,40.5889 Q498.3617,38.937 498.3617,35.8159 Q498.3617,32.6865 499.6815,31.0347 Q501.0014,29.3828 503.5082,29.3828 Q504.2138,29.3828 504.8612,29.5322 Q505.5087,29.6816 506.0731,29.9805 L506.0731,32.7031 Q505.4423,32.1221 504.8488,31.8523 Q504.2553,31.5825 503.6244,31.5825 Q502.2797,31.5825 501.5949,32.6492 Q500.9101,33.7158 500.9101,35.8159 Q500.9101,37.9077 501.5949,38.9744 Q502.2797,40.041 503.6244,40.041 Q504.2553,40.041 504.8488,39.7712 Q505.4423,39.5015 506.0731,38.9204 Z " fill="#000000"/><text fill="#000000" font-family="sans-serif" font-size="12" lengthAdjust="spacing" textLength="23" x="520.9" y="40.5352">Link</text><line style="stroke:#A80036;stroke-width:1.5;" x1="472" x2="563" y1="52" y2="52"/><ellipse cx="482" cy="63" rx="3" ry="3" style="stroke:#038048;stroke-width:1.0;fill:none;"/><text fill="#000000" font-family="sans-serif" font-size="11" lengthAdjust="spacing" textLength="67" x="491" y="66.6348">name: string</text><ellipse cx="482" cy="75.9551" rx="3" ry="3" style="stroke:#038048;stroke-width:1.0;fill:none;"/><text fill="#000000" font-family="sans-serif" font-size="11" lengthAdjust="spacing" textLength="56" x="491" y="79.5898">url : string</text><line style="stroke:#A80036;stroke-width:1.5;" x1="472" x2="563" y1="85.9102" y2="85.9102"/><!--MD5=[62157b509973564ddc878c05b423c99e]
class Implementation--><rect codeLine="20" fill="#FEFECE" filter="url(#fv4vhzwgookab)" height="60.9551" id="Implementation" style="stroke:#A80036;stroke-width:1.5;" width="121" x="396" y="184"/><ellipse cx="411" cy="200" fill="#A9DCDF" rx="11" ry="11" style="stroke:#A80036;stroke-width:1.0;"/><path d="M411.1133,195.3481 L409.9595,200.4199 L412.2754,200.4199 Z M409.6191,193.1069 L412.6157,193.1069 L415.9609,205.5 L413.5122,205.5 L412.7485,202.437 L409.4697,202.437 L408.7227,205.5 L406.2739,205.5 Z " fill="#000000"/><text fill="#000000" font-family="sans-serif" font-size="12" font-style="italic" lengthAdjust="spacing" textLength="89" x="425" y="204.5352">Implementation</text><line style="stroke:#A80036;stroke-width:1.5;" x1="397" x2="516" y1="216" y2="216"/><ellipse cx="407" cy="227" rx="3" ry="3" style="stroke:#038048;stroke-width:1.0;fill:none;"/><text fill="#000000" font-family="sans-serif" font-size="11" lengthAdjust="spacing" textLength="67" x="416" y="230.6348">name: string</text><line style="stroke:#A80036;stroke-width:1.5;" x1="397" x2="516" y1="236.9551" y2="236.9551"/><!--MD5=[668d633d11bedc8952753581a2dda3db]
class Community--><rect codeLine="24" fill="#FEFECE" filter="url(#fv4vhzwgookab)" height="48" id="Community" style="stroke:#A80036;stroke-width:1.5;" width="96" x="287.5" y="319"/><ellipse cx="302.5" cy="335" fill="#A9DCDF" rx="11" ry="11" style="stroke:#A80036;stroke-width:1.0;"/><path d="M302.6133,330.3481 L301.4595,335.4199 L303.7754,335.4199 Z M301.1191,328.1069 L304.1157,328.1069 L307.4609,340.5 L305.0122,340.5 L304.2485,337.437 L300.9697,337.437 L300.2227,340.5 L297.7739,340.5 Z " fill="#000000"/><text fill="#000000" font-family="sans-serif" font-size="12" font-style="italic" lengthAdjust="spacing" textLength="64" x="316.5" y="339.5352">Community</text><line style="stroke:#A80036;stroke-width:1.5;" x1="288.5" x2="382.5" y1="351" y2="351"/><line style="stroke:#A80036;stroke-width:1.5;" x1="288.5" x2="382.5" y1="359" y2="359"/><!--MD5=[a2b4d36bd85f5efca05149052cb67308]
class **EUFundedProject**--><rect codeLine="27" fill="#FEFECE" filter="url(#fv4vhzwgookab)" height="48" id="**EUFundedProject**" style="stroke:#A80036;stroke-width:1.5;" width="136" x="221.5" y="470"/><ellipse cx="236.5" cy="486" fill="#ADD1B2" rx="11" ry="11" style="stroke:#A80036;stroke-width:1.0;"/><path d="M239.4731,491.6431 Q238.8921,491.9419 238.2529,492.0913 Q237.6138,492.2407 236.9082,492.2407 Q234.4014,492.2407 233.0815,490.5889 Q231.7617,488.937 231.7617,485.8159 Q231.7617,482.6865 233.0815,481.0347 Q234.4014,479.3828 236.9082,479.3828 Q237.6138,479.3828 238.2612,479.5322 Q238.9087,479.6816 239.4731,479.9805 L239.4731,482.7031 Q238.8423,482.1221 238.2488,481.8523 Q237.6553,481.5825 237.0244,481.5825 Q235.6797,481.5825 234.9949,482.6492 Q234.3101,483.7158 234.3101,485.8159 Q234.3101,487.9077 234.9949,488.9744 Q235.6797,490.041 237.0244,490.041 Q237.6553,490.041 238.2488,489.7712 Q238.8423,489.5015 239.4731,488.9204 Z " fill="#000000"/><text fill="#000000" font-family="sans-serif" font-size="12" font-weight="bold" lengthAdjust="spacing" textLength="104" x="250.5" y="490.5352">EUFundedProject</text><line style="stroke:#A80036;stroke-width:1.5;" x1="222.5" x2="356.5" y1="502" y2="502"/><line style="stroke:#A80036;stroke-width:1.5;" x1="222.5" x2="356.5" y1="510" y2="510"/><!--MD5=[d7b8166d2cd7f8f6f75663b9329b35c0]
class **OpenSourceCommunity**--><rect codeLine="30" fill="#FEFECE" filter="url(#fv4vhzwgookab)" height="48" id="**OpenSourceCommunity**" style="stroke:#A80036;stroke-width:1.5;" width="179" x="7" y="470"/><ellipse cx="22" cy="486" fill="#ADD1B2" rx="11" ry="11" style="stroke:#A80036;stroke-width:1.0;"/><path d="M24.9731,491.6431 Q24.3921,491.9419 23.7529,492.0913 Q23.1138,492.2407 22.4082,492.2407 Q19.9014,492.2407 18.5815,490.5889 Q17.2617,488.937 17.2617,485.8159 Q17.2617,482.6865 18.5815,481.0347 Q19.9014,479.3828 22.4082,479.3828 Q23.1138,479.3828 23.7612,479.5322 Q24.4087,479.6816 24.9731,479.9805 L24.9731,482.7031 Q24.3423,482.1221 23.7488,481.8523 Q23.1553,481.5825 22.5244,481.5825 Q21.1797,481.5825 20.4949,482.6492 Q19.8101,483.7158 19.8101,485.8159 Q19.8101,487.9077 20.4949,488.9744 Q21.1797,490.041 22.5244,490.041 Q23.1553,490.041 23.7488,489.7712 Q24.3423,489.5015 24.9731,488.9204 Z " fill="#000000"/><text fill="#000000" font-family="sans-serif" font-size="12" font-weight="bold" lengthAdjust="spacing" textLength="147" x="36" y="490.5352">OpenSourceCommunity</text><line style="stroke:#A80036;stroke-width:1.5;" x1="8" x2="185" y1="502" y2="502"/><line style="stroke:#A80036;stroke-width:1.5;" x1="8" x2="185" y1="510" y2="510"/><!--MD5=[b73e80794168e6e90d941ce162d7801e]
class ToscaImplementation--><rect codeLine="33" fill="#FEFECE" filter="url(#fv4vhzwgookab)" height="73.9102" id="ToscaImplementation" style="stroke:#A80036;stroke-width:1.5;" width="236" x="464.5" y="306"/><ellipse cx="516.75" cy="322" fill="#A9DCDF" rx="11" ry="11" style="stroke:#A80036;stroke-width:1.0;"/><path d="M516.8633,317.3481 L515.7095,322.4199 L518.0254,322.4199 Z M515.3691,315.1069 L518.3657,315.1069 L521.7109,327.5 L519.2622,327.5 L518.4985,324.437 L515.2197,324.437 L514.4727,327.5 L512.0239,327.5 Z " fill="#000000"/><text fill="#000000" font-family="sans-serif" font-size="12" font-style="italic" lengthAdjust="spacing" textLength="123" x="537.25" y="326.5352">ToscaImplementation</text><line style="stroke:#A80036;stroke-width:1.5;" x1="465.5" x2="699.5" y1="338" y2="338"/><ellipse cx="475.5" cy="349" rx="3" ry="3" style="stroke:#038048;stroke-width:1.0;fill:none;"/><text fill="#000000" font-family="sans-serif" font-size="11" lengthAdjust="spacing" textLength="210" x="484.5" y="352.6348">supported_tosca_profiles: list&lt;string&gt;</text><ellipse cx="475.5" cy="361.9551" rx="3" ry="3" style="stroke:#038048;stroke-width:1.0;fill:none;"/><text fill="#000000" font-family="sans-serif" font-size="11" lengthAdjust="spacing" textLength="184" x="484.5" y="365.5898">target_environments: list&lt;string&gt;</text><line style="stroke:#A80036;stroke-width:1.5;" x1="465.5" x2="699.5" y1="371.9102" y2="371.9102"/><!--MD5=[531b280ccf420cab9465d43c3c96bcc9]
class **OpenStandard**--><rect codeLine="38" fill="#FEFECE" filter="url(#fv4vhzwgookab)" height="48" id="**OpenStandard**" style="stroke:#A80036;stroke-width:1.5;" width="120" x="942.5" y="592"/><ellipse cx="957.5" cy="608" fill="#ADD1B2" rx="11" ry="11" style="stroke:#A80036;stroke-width:1.0;"/><path d="M960.4731,613.6431 Q959.8921,613.9419 959.2529,614.0913 Q958.6138,614.2407 957.9082,614.2407 Q955.4014,614.2407 954.0815,612.5889 Q952.7617,610.937 952.7617,607.8159 Q952.7617,604.6865 954.0815,603.0347 Q955.4014,601.3828 957.9082,601.3828 Q958.6138,601.3828 959.2612,601.5322 Q959.9087,601.6816 960.4731,601.9805 L960.4731,604.7031 Q959.8423,604.1221 959.2488,603.8523 Q958.6553,603.5825 958.0244,603.5825 Q956.6797,603.5825 955.9949,604.6492 Q955.3101,605.7158 955.3101,607.8159 Q955.3101,609.9077 955.9949,610.9744 Q956.6797,612.041 958.0244,612.041 Q958.6553,612.041 959.2488,611.7712 Q959.8423,611.5015 960.4731,610.9204 Z " fill="#000000"/><text fill="#000000" font-family="sans-serif" font-size="12" font-weight="bold" lengthAdjust="spacing" textLength="88" x="971.5" y="612.5352">OpenStandard</text><line style="stroke:#A80036;stroke-width:1.5;" x1="943.5" x2="1061.5" y1="624" y2="624"/><line style="stroke:#A80036;stroke-width:1.5;" x1="943.5" x2="1061.5" y1="632" y2="632"/><!--MD5=[5de95931d76f65510359a9a8eb0257d0]
class SoftwareImplementation--><rect codeLine="41" fill="#FEFECE" filter="url(#fv4vhzwgookab)" height="73.9102" id="SoftwareImplementation" style="stroke:#A80036;stroke-width:1.5;" width="233" x="466" y="457"/><ellipse cx="509.35" cy="473" fill="#A9DCDF" rx="11" ry="11" style="stroke:#A80036;stroke-width:1.0;"/><path d="M509.4633,468.3481 L508.3095,473.4199 L510.6254,473.4199 Z M507.9691,466.1069 L510.9657,466.1069 L514.3109,478.5 L511.8622,478.5 L511.0985,475.437 L507.8197,475.437 L507.0727,478.5 L504.6239,478.5 Z " fill="#000000"/><text fill="#000000" font-family="sans-serif" font-size="12" font-style="italic" lengthAdjust="spacing" textLength="138" x="529.65" y="477.5352">SoftwareImplementation</text><line style="stroke:#A80036;stroke-width:1.5;" x1="467" x2="698" y1="489" y2="489"/><ellipse cx="477" cy="500" rx="3" ry="3" style="stroke:#038048;stroke-width:1.0;fill:none;"/><text fill="#000000" font-family="sans-serif" font-size="11" lengthAdjust="spacing" textLength="146" x="486" y="503.6348">usage_modes: list&lt;string&gt;</text><ellipse cx="477" cy="512.9551" rx="3" ry="3" style="stroke:#038048;stroke-width:1.0;fill:none;"/><text fill="#000000" font-family="sans-serif" font-size="11" lengthAdjust="spacing" textLength="207" x="486" y="516.5898">programming_languages: list&lt;string&gt;</text><line style="stroke:#A80036;stroke-width:1.5;" x1="467" x2="698" y1="522.9102" y2="522.9102"/><!--MD5=[b088813d5e563f78823af1e13f9643b4]
class **ModelingTool**--><rect codeLine="46" fill="#FEFECE" filter="url(#fv4vhzwgookab)" height="48" id="**ModelingTool**" style="stroke:#A80036;stroke-width:1.5;" width="118" x="206.5" y="592"/><ellipse cx="221.5" cy="608" fill="#ADD1B2" rx="11" ry="11" style="stroke:#A80036;stroke-width:1.0;"/><path d="M224.4731,613.6431 Q223.8921,613.9419 223.2529,614.0913 Q222.6138,614.2407 221.9082,614.2407 Q219.4014,614.2407 218.0815,612.5889 Q216.7617,610.937 216.7617,607.8159 Q216.7617,604.6865 218.0815,603.0347 Q219.4014,601.3828 221.9082,601.3828 Q222.6138,601.3828 223.2612,601.5322 Q223.9087,601.6816 224.4731,601.9805 L224.4731,604.7031 Q223.8423,604.1221 223.2488,603.8523 Q222.6553,603.5825 222.0244,603.5825 Q220.6797,603.5825 219.9949,604.6492 Q219.3101,605.7158 219.3101,607.8159 Q219.3101,609.9077 219.9949,610.9744 Q220.6797,612.041 222.0244,612.041 Q222.6553,612.041 223.2488,611.7712 Q223.8423,611.5015 224.4731,610.9204 Z " fill="#000000"/><text fill="#000000" font-family="sans-serif" font-size="12" font-weight="bold" lengthAdjust="spacing" textLength="86" x="235.5" y="612.5352">ModelingTool</text><line style="stroke:#A80036;stroke-width:1.5;" x1="207.5" x2="323.5" y1="624" y2="624"/><line style="stroke:#A80036;stroke-width:1.5;" x1="207.5" x2="323.5" y1="632" y2="632"/><!--MD5=[4c74589ac0f8e501e79de34bc72af2ad]
class **MarketPlace**--><rect codeLine="49" fill="#FEFECE" filter="url(#fv4vhzwgookab)" height="48" id="**MarketPlace**" style="stroke:#A80036;stroke-width:1.5;" width="106" x="359.5" y="592"/><ellipse cx="374.5" cy="608" fill="#ADD1B2" rx="11" ry="11" style="stroke:#A80036;stroke-width:1.0;"/><path d="M377.4731,613.6431 Q376.8921,613.9419 376.2529,614.0913 Q375.6138,614.2407 374.9082,614.2407 Q372.4014,614.2407 371.0815,612.5889 Q369.7617,610.937 369.7617,607.8159 Q369.7617,604.6865 371.0815,603.0347 Q372.4014,601.3828 374.9082,601.3828 Q375.6138,601.3828 376.2612,601.5322 Q376.9087,601.6816 377.4731,601.9805 L377.4731,604.7031 Q376.8423,604.1221 376.2488,603.8523 Q375.6553,603.5825 375.0244,603.5825 Q373.6797,603.5825 372.9949,604.6492 Q372.3101,605.7158 372.3101,607.8159 Q372.3101,609.9077 372.9949,610.9744 Q373.6797,612.041 375.0244,612.041 Q375.6553,612.041 376.2488,611.7712 Q376.8423,611.5015 377.4731,610.9204 Z " fill="#000000"/><text fill="#000000" font-family="sans-serif" font-size="12" font-weight="bold" lengthAdjust="spacing" textLength="74" x="388.5" y="612.5352">MarketPlace</text><line style="stroke:#A80036;stroke-width:1.5;" x1="360.5" x2="464.5" y1="624" y2="624"/><line style="stroke:#A80036;stroke-width:1.5;" x1="360.5" x2="464.5" y1="632" y2="632"/><!--MD5=[cd01a1854c7e81544da43c1872e6f2c6]
class **Orchestrator**--><rect codeLine="52" fill="#FEFECE" filter="url(#fv4vhzwgookab)" height="48" id="**Orchestrator**" style="stroke:#A80036;stroke-width:1.5;" width="110" x="500.5" y="592"/><ellipse cx="515.5" cy="608" fill="#ADD1B2" rx="11" ry="11" style="stroke:#A80036;stroke-width:1.0;"/><path d="M518.4731,613.6431 Q517.8921,613.9419 517.2529,614.0913 Q516.6138,614.2407 515.9082,614.2407 Q513.4014,614.2407 512.0815,612.5889 Q510.7617,610.937 510.7617,607.8159 Q510.7617,604.6865 512.0815,603.0347 Q513.4014,601.3828 515.9082,601.3828 Q516.6138,601.3828 517.2612,601.5322 Q517.9087,601.6816 518.4731,601.9805 L518.4731,604.7031 Q517.8423,604.1221 517.2488,603.8523 Q516.6553,603.5825 516.0244,603.5825 Q514.6797,603.5825 513.9949,604.6492 Q513.3101,605.7158 513.3101,607.8159 Q513.3101,609.9077 513.9949,610.9744 Q514.6797,612.041 516.0244,612.041 Q516.6553,612.041 517.2488,611.7712 Q517.8423,611.5015 518.4731,610.9204 Z " fill="#000000"/><text fill="#000000" font-family="sans-serif" font-size="12" font-weight="bold" lengthAdjust="spacing" textLength="78" x="529.5" y="612.5352">Orchestrator</text><line style="stroke:#A80036;stroke-width:1.5;" x1="501.5" x2="609.5" y1="624" y2="624"/><line style="stroke:#A80036;stroke-width:1.5;" x1="501.5" x2="609.5" y1="632" y2="632"/><!--MD5=[078f76c2f41ce9c09ebfffa16dcfd95b]
class **DeveloperTool**--><rect codeLine="55" fill="#FEFECE" filter="url(#fv4vhzwgookab)" height="48" id="**DeveloperTool**" style="stroke:#A80036;stroke-width:1.5;" width="123" x="646" y="592"/><ellipse cx="661" cy="608" fill="#ADD1B2" rx="11" ry="11" style="stroke:#A80036;stroke-width:1.0;"/><path d="M663.9731,613.6431 Q663.3921,613.9419 662.7529,614.0913 Q662.1138,614.2407 661.4082,614.2407 Q658.9014,614.2407 657.5815,612.5889 Q656.2617,610.937 656.2617,607.8159 Q656.2617,604.6865 657.5815,603.0347 Q658.9014,601.3828 661.4082,601.3828 Q662.1138,601.3828 662.7612,601.5322 Q663.4087,601.6816 663.9731,601.9805 L663.9731,604.7031 Q663.3423,604.1221 662.7488,603.8523 Q662.1553,603.5825 661.5244,603.5825 Q660.1797,603.5825 659.4949,604.6492 Q658.8101,605.7158 658.8101,607.8159 Q658.8101,609.9077 659.4949,610.9744 Q660.1797,612.041 661.5244,612.041 Q662.1553,612.041 662.7488,611.7712 Q663.3423,611.5015 663.9731,610.9204 Z " fill="#000000"/><text fill="#000000" font-family="sans-serif" font-size="12" font-weight="bold" lengthAdjust="spacing" textLength="91" x="675" y="612.5352">DeveloperTool</text><line style="stroke:#A80036;stroke-width:1.5;" x1="647" x2="768" y1="624" y2="624"/><line style="stroke:#A80036;stroke-width:1.5;" x1="647" x2="768" y1="632" y2="632"/><!--MD5=[3ca0a2cd3f3c0e59c0a2ae32227a4268]
class **Application**--><rect codeLine="58" fill="#FEFECE" filter="url(#fv4vhzwgookab)" height="48" id="**Application**" style="stroke:#A80036;stroke-width:1.5;" width="103" x="804" y="592"/><ellipse cx="819" cy="608" fill="#ADD1B2" rx="11" ry="11" style="stroke:#A80036;stroke-width:1.0;"/><path d="M821.9731,613.6431 Q821.3921,613.9419 820.7529,614.0913 Q820.1138,614.2407 819.4082,614.2407 Q816.9014,614.2407 815.5815,612.5889 Q814.2617,610.937 814.2617,607.8159 Q814.2617,604.6865 815.5815,603.0347 Q816.9014,601.3828 819.4082,601.3828 Q820.1138,601.3828 820.7612,601.5322 Q821.4087,601.6816 821.9731,601.9805 L821.9731,604.7031 Q821.3423,604.1221 820.7488,603.8523 Q820.1553,603.5825 819.5244,603.5825 Q818.1797,603.5825 817.4949,604.6492 Q816.8101,605.7158 816.8101,607.8159 Q816.8101,609.9077 817.4949,610.9744 Q818.1797,612.041 819.5244,612.041 Q820.1553,612.041 820.7488,611.7712 Q821.3423,611.5015 821.9731,610.9204 Z " fill="#000000"/><text fill="#000000" font-family="sans-serif" font-size="12" font-weight="bold" lengthAdjust="spacing" textLength="71" x="833" y="612.5352">Application</text><line style="stroke:#A80036;stroke-width:1.5;" x1="805" x2="906" y1="624" y2="624"/><line style="stroke:#A80036;stroke-width:1.5;" x1="805" x2="906" y1="632" y2="632"/><!--MD5=[0631ec619a05f4e28d7ff39bbf79e13b]
reverse link Implementation to Community--><path d="M413.5331,260.1302 C394.8602,279.9604 373.7484,302.3809 358.197,318.8961 " fill="none" id="Implementation-backto-Community" style="stroke:#A80036;stroke-width:1.0;"/><polygon fill="none" points="408.7104,255.0409,427.5175,245.279,418.9029,264.6385,408.7104,255.0409" style="stroke:#A80036;stroke-width:1.0;"/><!--MD5=[1cb40176bdeb2658094b8a65ba879303]
reverse link Community to **EUFundedProject**--><path d="M322.1691,386.7602 C313.9324,413.7981 303.6731,447.4754 296.8724,469.7994 " fill="none" id="Community-backto-**EUFundedProject**" style="stroke:#A80036;stroke-width:1.0;"/><polygon fill="none" points="315.5848,384.3528,328.1093,367.2608,328.9771,388.4326,315.5848,384.3528" style="stroke:#A80036;stroke-width:1.0;"/><!--MD5=[feb01a3f944eb66deeb28ca8a2f80a10]
reverse link Community to **OpenSourceCommunity**--><path d="M280.2644,377.8978 C235.569,406.1363 173.8008,445.1614 134.4987,469.9925 " fill="none" id="Community-backto-**OpenSourceCommunity**" style="stroke:#A80036;stroke-width:1.0;"/><polygon fill="none" points="276.7185,371.8581,297.3655,367.0934,284.1963,383.6938,276.7185,371.8581" style="stroke:#A80036;stroke-width:1.0;"/><!--MD5=[d4d6ec7611b00ba2bb478bdf43c5506d]
reverse link Implementation to ToscaImplementation--><path d="M500.7741,259.6525 C515.5037,274.6744 531.7356,291.2284 545.8255,305.5978 " fill="none" id="Implementation-backto-ToscaImplementation" style="stroke:#A80036;stroke-width:1.0;"/><polygon fill="none" points="495.6846,264.4602,486.6801,245.279,505.6808,254.6584,495.6846,264.4602" style="stroke:#A80036;stroke-width:1.0;"/><!--MD5=[e4962b214dd56a45f0d90abe4688dcab]
reverse link ToscaImplementation to **OpenStandard**--><path d="M719.8386,375.88 C775.305,393.6952 837.6162,419.8662 886.5,457 C935.3408,494.1012 972.7205,557.3448 990.6993,591.8297 " fill="none" id="ToscaImplementation-backto-**OpenStandard**" style="stroke:#A80036;stroke-width:1.0;"/><polygon fill="none" points="717.5841,382.5101,700.5382,369.9228,721.7131,369.1328,717.5841,382.5101" style="stroke:#A80036;stroke-width:1.0;"/><!--MD5=[c66e18cb8a1ac478f21d737d822b197e]
reverse link ToscaImplementation to SoftwareImplementation--><path d="M582.5,400.359 C582.5,419.287 582.5,439.832 582.5,456.8421 " fill="none" id="ToscaImplementation-backto-SoftwareImplementation" style="stroke:#A80036;stroke-width:1.0;"/><polygon fill="none" points="575.5001,400.3259,582.5,380.3259,589.5001,400.3258,575.5001,400.3259" style="stroke:#A80036;stroke-width:1.0;"/><!--MD5=[bf99f1a4e4a67cfd467713e12ce7c7de]
reverse link SoftwareImplementation to **ModelingTool**--><path d="M467.1907,538.3777 C418.8229,556.9925 364.6457,577.843 324.6308,593.243 " fill="none" id="SoftwareImplementation-backto-**ModelingTool**" style="stroke:#A80036;stroke-width:1.0;"/><polygon fill="none" points="464.9188,531.7516,486.0984,531.1009,469.9473,544.8174,464.9188,531.7516" style="stroke:#A80036;stroke-width:1.0;"/><!--MD5=[48b1a51b593e97ff0c8d6e008d830988]
reverse link SoftwareImplementation to **MarketPlace**--><path d="M514.3165,542.9317 C490.8662,559.7608 465.6371,577.8663 446.1595,591.8443 " fill="none" id="SoftwareImplementation-backto-**MarketPlace**" style="stroke:#A80036;stroke-width:1.0;"/><polygon fill="none" points="510.2405,537.2408,530.5707,531.2669,518.4032,548.615,510.2405,537.2408" style="stroke:#A80036;stroke-width:1.0;"/><!--MD5=[ce5ea10a9ed05477d7df57ffdac6b799]
reverse link SoftwareImplementation to **Orchestrator**--><path d="M569.8889,550.9835 C566.7196,565.3042 563.4846,579.9214 560.8868,591.6595 " fill="none" id="SoftwareImplementation-backto-**Orchestrator**" style="stroke:#A80036;stroke-width:1.0;"/><polygon fill="none" points="563.096,549.2818,574.2524,531.2669,576.7653,552.307,563.096,549.2818" style="stroke:#A80036;stroke-width:1.0;"/><!--MD5=[8df844d810bfd97a09843898ba5183b8]
reverse link SoftwareImplementation to **DeveloperTool**--><path d="M635.0896,545.3275 C651.5467,561.3896 668.9444,578.3698 682.561,591.6595 " fill="none" id="SoftwareImplementation-backto-**DeveloperTool**" style="stroke:#A80036;stroke-width:1.0;"/><polygon fill="none" points="630.1069,550.2458,620.6833,531.2669,639.8855,540.2268,630.1069,550.2458" style="stroke:#A80036;stroke-width:1.0;"/><!--MD5=[6d2ab58ae0f4d6dca014cc77e2ceeae9]
reverse link SoftwareImplementation to **Application**--><path d="M683.8899,539.3098 C724.6818,557.5391 769.9618,577.7742 803.7639,592.8799 " fill="none" id="SoftwareImplementation-backto-**Application**" style="stroke:#A80036;stroke-width:1.0;"/><polygon fill="none" points="680.9246,545.6518,665.5209,531.1009,686.6366,532.8701,680.9246,545.6518" style="stroke:#A80036;stroke-width:1.0;"/><!--MD5=[e4da2baa4fc49e5b168dbfa8ba7d6775]
reverse link Landscape to Category--><path codeLine="61" d="M111.5,94.6122 C111.5,121.9441 111.5,158.468 111.5,183.9924 " fill="none" id="Landscape-backto-Category" style="stroke:#A80036;stroke-width:1.0;"/><polygon fill="#A80036" points="111.5,81.2642,107.5,87.2642,111.5,93.2642,115.5,87.2642,111.5,81.2642" style="stroke:#A80036;stroke-width:1.0;"/><text fill="#000000" font-family="sans-serif" font-size="13" lengthAdjust="spacing" textLength="65" x="112.5" y="150.5684">categories</text><text fill="#000000" font-family="sans-serif" font-size="13" lengthAdjust="spacing" textLength="6" x="104.8438" y="173.2855">*</text><!--MD5=[1bbb0fe1bbd6d6c018b138c568bec21c]
reverse link Category to Implementation--><path codeLine="62" d="M171.2763,214.5 C234.1996,214.5 332.7206,214.5 395.9382,214.5 " fill="none" id="Category-backto-Implementation" style="stroke:#A80036;stroke-width:1.0;"/><polygon fill="#A80036" points="158.0282,214.5,164.0282,218.5,170.0282,214.5,164.0282,210.5,158.0282,214.5" style="stroke:#A80036;stroke-width:1.0;"/><text fill="#000000" font-family="sans-serif" font-size="13" lengthAdjust="spacing" textLength="106" x="224" y="208.0684">implementations</text><text fill="#000000" font-family="sans-serif" font-size="13" lengthAdjust="spacing" textLength="6" x="382.1916" y="211.176">*</text><!--MD5=[a5725b0440277e7b298212d4ab098951]
link Category to Category--><path codeLine="63" d="M158.4007,203.3187 C177.2114,202.687 193,206.4141 193,214.5 C193,220.5645 184.1189,224.1771 171.7426,225.3378 " fill="none" id="Category-to-Category" style="stroke:#A80036;stroke-width:1.0;"/><polygon fill="#A80036" points="158.4007,225.6813,164.5017,229.5255,170.3967,225.3723,164.2957,221.5281,158.4007,225.6813" style="stroke:#A80036;stroke-width:1.0;"/><text fill="#000000" font-family="sans-serif" font-size="13" lengthAdjust="spacing" textLength="65" x="199" y="219.5684">categories</text><text fill="#000000" font-family="sans-serif" font-size="13" lengthAdjust="spacing" textLength="6" x="166.0417" y="198.0537">*</text><!--MD5=[73966f7b43aaa31981b6de17f481db63]
link Status to Implementation--><path codeLine="64" d="M414.2877,107.267 C422.4663,128.0434 431.8483,151.8767 439.6872,171.79 " fill="none" id="Status-to-Implementation" style="stroke:#A80036;stroke-width:1.0;"/><polygon fill="#A80036" points="444.4654,183.9281,445.9896,176.8799,440.0699,172.7621,438.5456,179.8103,444.4654,183.9281" style="stroke:#A80036;stroke-width:1.0;"/><text fill="#000000" font-family="sans-serif" font-size="13" lengthAdjust="spacing" textLength="39" x="432.5" y="150.5684">status</text><!--MD5=[8c23ad07c8d7e3ec68ddd6651209b50e]
link Link to Implementation--><path codeLine="65" d="M503.0439,94.3253 C494.0846,117.4578 482.5433,147.257 473.195,171.394 " fill="none" id="Link-to-Implementation" style="stroke:#A80036;stroke-width:1.0;"/><polygon fill="#A80036" points="468.3949,183.7878,474.2919,179.6374,472.7289,172.5978,466.8319,176.7481,468.3949,183.7878" style="stroke:#A80036;stroke-width:1.0;"/><text fill="#000000" font-family="sans-serif" font-size="13" lengthAdjust="spacing" textLength="31" x="486.5" y="150.5684">links</text><text fill="#000000" font-family="sans-serif" font-size="13" lengthAdjust="spacing" textLength="6" x="494.1527" y="114.351">*</text><!--MD5=[5050d02a8c95f948f61fc30530109f80]
reverse link **EUFundedProject** to SoftwareImplementation--><path codeLine="66" d="M370.9798,494 C400.3276,494 434.0426,494 465.8057,494 " fill="none" id="**EUFundedProject**-backto-SoftwareImplementation" style="stroke:#A80036;stroke-width:1.0;"/><polygon fill="#FFFFFF" points="357.8257,494,363.8257,498,369.8257,494,363.8257,490,357.8257,494" style="stroke:#A80036;stroke-width:1.0;"/><text fill="#000000" font-family="sans-serif" font-size="13" lengthAdjust="spacing" textLength="72" x="375.75" y="487.5684">contributes</text><text fill="#000000" font-family="sans-serif" font-size="13" lengthAdjust="spacing" textLength="6" x="452.1378" y="491.1007">*</text><!--MD5=[e09edf5f534c028d7a09dcd1a8c0dad1]
reverse link Community to SoftwareImplementation--><path codeLine="67" d="M386.0591,373.9086 C425.3077,397.9027 479.8741,431.2611 521.5392,456.7324 " fill="none" id="Community-backto-SoftwareImplementation" style="stroke:#A80036;stroke-width:1.0;"/><polygon fill="#FFFFFF" points="374.911,367.0934,377.9438,373.6357,385.1493,373.3525,382.1165,366.8102,374.911,367.0934" style="stroke:#A80036;stroke-width:1.0;"/><text fill="#000000" font-family="sans-serif" font-size="13" lengthAdjust="spacing" textLength="35" x="467.5" y="423.5684">hosts</text><text fill="#000000" font-family="sans-serif" font-size="13" lengthAdjust="spacing" textLength="6" x="504.1462" y="446.3622">*</text><!--MD5=[3a7160359a88228a7beaf84168bee821]
reverse link Implementation to Implementation--><path codeLine="68" d="M522.4744,208.9405 C539.3331,209.3015 552,211.1547 552,214.5 C552,218.1914 536.5768,220.0659 517.1172,220.1236 " fill="none" id="Implementation-backto-Implementation" style="stroke:#A80036;stroke-width:1.0;"/><polygon fill="#A80036" points="517.1172,208.8764,526.0686,212.9841,522.1168,208.9364,526.1646,204.9847,517.1172,208.8764" style="stroke:#A80036;stroke-width:1.0;"/><text fill="#000000" font-family="sans-serif" font-size="13" lengthAdjust="spacing" textLength="29" x="558" y="219.5684">uses</text><text fill="#000000" font-family="sans-serif" font-size="13" lengthAdjust="spacing" textLength="6" x="524.8705" y="204.867">*</text><!--MD5=[59081bbf259a2ec519ef3e17ef2ee3f4]
link Implementation to Implementation--><path codeLine="69" d="M517.0297,204.0673 C555.5278,201.5009 593,204.9785 593,214.5 C593,223.5752 558.9584,227.1598 522.433,225.2538 " fill="none" id="Implementation-to-Implementation" style="stroke:#A80036;stroke-width:1.0;"/><polygon fill="#A80036" points="517.0297,224.9327,525.7766,229.4595,522.0209,225.2293,526.2511,221.4736,517.0297,224.9327" style="stroke:#A80036;stroke-width:1.0;"/><text fill="#000000" font-family="sans-serif" font-size="13" lengthAdjust="spacing" textLength="104" x="599" y="219.5684">same ecosystem</text><text fill="#000000" font-family="sans-serif" font-size="13" lengthAdjust="spacing" textLength="6" x="525.1694" y="222.8996">*</text><!--MD5=[9ed1c7e88b5e32a8fcd8a3632ef99568]
reverse link SoftwareImplementation to SoftwareImplementation--><path codeLine="70" d="M704.2249,488.4105 C722.0092,489.2942 734,491.1574 734,494 C734,497.1099 719.6485,499.0475 699.0604,499.8128 " fill="none" id="SoftwareImplementation-backto-SoftwareImplementation" style="stroke:#A80036;stroke-width:1.0;"/><polygon fill="#A80036" points="699.0604,488.1872,707.8792,492.5723,704.0557,488.4032,708.2248,484.5797,699.0604,488.1872" style="stroke:#A80036;stroke-width:1.0;"/><text fill="#000000" font-family="sans-serif" font-size="13" lengthAdjust="spacing" textLength="47" x="740" y="499.0684">plugins</text><text fill="#000000" font-family="sans-serif" font-size="13" lengthAdjust="spacing" textLength="6" x="707.0934" y="484.8746">*</text><!--MD5=[5bf9a8226022b0f496d42e2c2ec135f4]
link SoftwareImplementation to SoftwareImplementation--><path codeLine="71" d="M699.0755,481.7206 C749.1117,480.9318 793,485.0249 793,494 C793,502.6596 752.1433,506.7744 704.3283,506.3445 " fill="none" id="SoftwareImplementation-to-SoftwareImplementation" style="stroke:#A80036;stroke-width:1.0;"/><polygon fill="#A80036" points="699.0755,506.2794,708.0251,510.3909,704.0751,506.3415,708.1245,502.3916,699.0755,506.2794" style="stroke:#A80036;stroke-width:1.0;"/><text fill="#000000" font-family="sans-serif" font-size="13" lengthAdjust="spacing" textLength="63" x="799" y="499.0684">applied to</text><text fill="#000000" font-family="sans-serif" font-size="13" lengthAdjust="spacing" textLength="6" x="707.1095" y="504.1823">*</text><!--MD5=[5fa5a4d5f262f7a037bb140c7e798a28]
link **Application** to **OpenStandard**--><!--MD5=[8a96e4a39a6b5ad1f5c1ea33cf2d6ab9]
@startuml

class Landscape {}

class Category {
  +name: string
}

enum Status {
  +ACTIVE
  +SLEEPING
  +INACTIVE
  +UNKNOWN
}

class Link {
  +name: string
  +url : string
}

abstract class Implementation {
  +name: string
}

abstract class Community extends Implementation {
}

class **EUFundedProject** extends Community {
}

class **OpenSourceCommunity** extends Community {
}

abstract class ToscaImplementation extends Implementation {
  +supported_tosca_profiles: list<string>
  +target_environments: list<string>
}

class **OpenStandard** extends ToscaImplementation {
}

abstract class SoftwareImplementation extends ToscaImplementation {
  +usage_modes: list<string>
  +programming_languages: list<string>
}

class **ModelingTool** extends SoftwareImplementation {
}

class **MarketPlace** extends SoftwareImplementation {
}

class **Orchestrator** extends SoftwareImplementation {
}

class **DeveloperTool** extends SoftwareImplementation {
}

class **Application** extends SoftwareImplementation {
}

Landscape *- - "*" Category : categories
Category *- "*" Implementation : implementations
Category *-up- "*" Category : categories
Implementation *-up- Status : status
Implementation *-up- "*" Link : links
"**EUFundedProject**" o-right- "*" SoftwareImplementation : contributes
Community o-right- "*" SoftwareImplementation : hosts
Implementation -up-> "*" Implementation : uses
Implementation - -> "*" Implementation : same ecosystem
SoftwareImplementation -up-> "*" SoftwareImplementation : plugins
SoftwareImplementation - -> "*" SoftwareImplementation : applied to

"**Application**" -[hidden] "**OpenStandard**"

@end

PlantUML version 1.2021.13(Mon Nov 01 12:38:45 CET 2021)
(GPL source distribution)
Java Runtime: Java(TM) SE Runtime Environment
JVM: Java HotSpot(TM) 64-Bit Server VM
Default Encoding: UTF-8
Language: fr
Country: FR
--></g></svg>