<?xml version="1.0" encoding="UTF-8"?>
<!DOCTYPE svg PUBLIC "-//W3C//DTD SVG 1.1//EN" "http://www.w3.org/Graphics/SVG/1.1/DTD/svg11.dtd">
<!-- Creator: CorelDRAW X6 -->
<svg xmlns="http://www.w3.org/2000/svg" xml:space="preserve" width="100%" height="100%" version="1.1" style="shape-rendering:geometricPrecision; text-rendering:geometricPrecision; image-rendering:optimizeQuality; fill-rule:evenodd; clip-rule:evenodd"
viewBox="0 0 500 500"
 xmlns:xlink="http://www.w3.org/1999/xlink">
 <defs>
  <style type="text/css">
   <![CDATA[
    .fil0 {fill:#202020}
   ]]>
  </style>
 </defs>
 <g id="Layer_x0020_1">
  <metadata id="CorelCorpID_0Corel-Layer"/>
  <path class="fil0" d="M70 312c0,-116 76,-155 166,-155 5,0 11,0 17,1 -82,4 -148,45 -148,154l-35 0zm149 -218c15,-3 46,-3 62,0l-10 15 -11 0 0 16 16 0c11,0 20,8 21,19 92,12 162,64 162,185l-418 0c0,-122 71,-173 162,-185 1,-11 10,-19 21,-19l16 0 0 -16 -11 0 -10 -15zm-189 273c0,5 -1,10 -10,10 0,10 0,21 0,31l460 0c0,-10 0,-21 0,-31 -6,0 -10,-5 -10,-10l0 -11c0,-6 -5,-10 -11,-10l-418 0c-6,0 -11,4 -11,10l0 11z"/>
 </g>
</svg>
